<svg width="361" height="240" viewBox="0 0 361 240" fill="none" xmlns="http://www.w3.org/2000/svg">
<g opacity="0.5">
<mask id="path-1-outside-1_71_23" maskUnits="userSpaceOnUse" x="-1" y="-2" width="393" height="244" fill="black">
<rect fill="white" x="-1" y="-2" width="393" height="244"/>
<path d="M0.58357 120.082C0.58357 87.0652 13.0043 58.9221 37.8456 35.653C63.0014 12.0694 94.1317 0.277617 131.237 0.277617C168.341 0.277617 198.528 10.0255 221.797 29.5212C245.381 48.7025 257.173 78.8895 257.173 120.082C257.173 153.099 244.595 181.399 219.439 204.983C194.598 228.252 163.625 239.887 126.52 239.887C89.415 239.887 59.0708 230.296 35.4873 211.115C12.2181 191.619 0.58357 161.275 0.58357 120.082ZM38.3173 120.082C38.3173 159.703 46.6501 188.946 63.3159 207.813C79.9816 226.68 101.364 236.113 127.463 236.113C153.562 236.113 175.416 224.793 193.026 202.153C210.635 179.513 219.439 152.156 219.439 120.082C219.439 80.4618 211.106 51.2181 194.441 32.3513C177.775 13.4844 156.392 4.05098 130.293 4.05098C104.194 4.05098 82.3399 15.3711 64.7309 38.0113C47.1218 60.6515 38.3173 88.0085 38.3173 120.082ZM384.281 5.93767H362.112V234.227H390.413V238H296.078V234.227H324.379V5.93767H302.21V2.16431H384.281V5.93767Z"/>
</mask>
<path d="M37.8456 35.653L38.9204 36.8004L38.9209 36.8L37.8456 35.653ZM221.797 29.5212L220.788 30.7264L220.797 30.7337L220.805 30.741L221.797 29.5212ZM219.439 204.983L220.514 206.13L220.514 206.13L219.439 204.983ZM35.4873 211.115L34.4775 212.32L34.4863 212.327L34.4952 212.334L35.4873 211.115ZM63.3159 207.813L64.4942 206.772L63.3159 207.813ZM193.026 202.153L194.267 203.118L194.267 203.118L193.026 202.153ZM194.441 32.3513L195.619 31.3104L195.619 31.3104L194.441 32.3513ZM64.7309 38.0113L63.4898 37.0461L63.4898 37.0461L64.7309 38.0113ZM2.15581 120.082C2.15581 87.5149 14.3853 59.7827 38.9204 36.8004L36.7708 34.5055C11.6232 58.0615 -0.988668 86.6154 -0.988668 120.082H2.15581ZM38.9209 36.8C63.7619 13.5115 94.4979 1.84986 131.237 1.84986V-1.29462C93.7655 -1.29462 62.2409 10.6273 36.7703 34.506L38.9209 36.8ZM131.237 1.84986C168.057 1.84986 197.861 11.5172 220.788 30.7264L222.807 28.3161C199.196 8.53375 168.625 -1.29462 131.237 -1.29462V1.84986ZM220.805 30.741C243.903 49.5268 255.601 79.1841 255.601 120.082H258.745C258.745 78.5949 246.859 47.8782 222.79 28.3015L220.805 30.741ZM255.601 120.082C255.601 152.643 243.218 180.535 218.364 203.836L220.514 206.13C245.971 182.264 258.745 153.555 258.745 120.082H255.601ZM218.364 203.836C193.842 226.806 163.265 238.314 126.52 238.314V241.459C163.985 241.459 195.354 229.698 220.514 206.13L218.364 203.836ZM126.52 238.314C89.694 238.314 59.7247 228.801 36.4793 209.895L34.4952 212.334C58.417 231.791 89.136 241.459 126.52 241.459V238.314ZM36.497 209.91C13.7 190.809 2.15581 160.985 2.15581 120.082H-0.988668C-0.988668 161.564 10.7363 192.429 34.4775 212.32L36.497 209.91ZM36.745 120.082C36.745 159.877 45.1071 189.574 62.1375 208.854L64.4942 206.772C48.1932 188.318 39.8895 159.529 39.8895 120.082H36.745ZM62.1375 208.854C79.114 228.073 100.932 237.686 127.463 237.686V234.541C101.796 234.541 80.8492 225.287 64.4942 206.772L62.1375 208.854ZM127.463 237.686C154.1 237.686 176.393 226.098 194.267 203.118L191.784 201.188C174.439 223.488 153.025 234.541 127.463 234.541V237.686ZM194.267 203.118C212.116 180.169 221.011 152.462 221.011 120.082H217.867C217.867 151.85 209.154 178.856 191.784 201.188L194.267 203.118ZM221.011 120.082C221.011 80.2878 212.649 50.5901 195.619 31.3104L193.262 33.3921C209.563 51.8461 217.867 80.6357 217.867 120.082H221.011ZM195.619 31.3104C178.642 12.0918 156.824 2.47874 130.293 2.47874V5.62322C155.96 5.62322 176.907 14.8771 193.262 33.3921L195.619 31.3104ZM130.293 2.47874C103.656 2.47874 81.363 14.0663 63.4898 37.0461L65.9719 38.9766C83.3169 16.6759 104.732 5.62322 130.293 5.62322V2.47874ZM63.4898 37.0461C45.6408 59.9948 36.745 87.7025 36.745 120.082H39.8895C39.8895 88.3145 48.6028 61.3083 65.9719 38.9766L63.4898 37.0461ZM384.281 5.93767V7.50991H385.853V5.93767H384.281ZM362.112 5.93767V4.36543H360.54V5.93767H362.112ZM362.112 234.227H360.54V235.799H362.112V234.227ZM390.413 234.227H391.985V232.654H390.413V234.227ZM390.413 238V239.572H391.985V238H390.413ZM296.078 238H294.506V239.572H296.078V238ZM296.078 234.227V232.654H294.506V234.227H296.078ZM324.379 234.227V235.799H325.951V234.227H324.379ZM324.379 5.93767H325.951V4.36543H324.379V5.93767ZM302.21 5.93767H300.638V7.50991H302.21V5.93767ZM302.21 2.16431V0.592069H300.638V2.16431H302.21ZM384.281 2.16431H385.853V0.592069H384.281V2.16431ZM384.281 4.36543H362.112V7.50991H384.281V4.36543ZM360.54 5.93767V234.227H363.685V5.93767H360.54ZM362.112 235.799H390.413V232.654H362.112V235.799ZM388.84 234.227V238H391.985V234.227H388.84ZM390.413 236.428H296.078V239.572H390.413V236.428ZM297.651 238V234.227H294.506V238H297.651ZM296.078 235.799H324.379V232.654H296.078V235.799ZM325.951 234.227V5.93767H322.806V234.227H325.951ZM324.379 4.36543H302.21V7.50991H324.379V4.36543ZM303.782 5.93767V2.16431H300.638V5.93767H303.782ZM302.21 3.73654H384.281V0.592069H302.21V3.73654ZM382.709 2.16431V5.93767H385.853V2.16431H382.709Z" fill="white" mask="url(#path-1-outside-1_71_23)"/>
</g>
</svg>
