<svg width="361" height="240" viewBox="0 0 361 240" fill="none" xmlns="http://www.w3.org/2000/svg">
<g opacity="0.5">
<mask id="path-1-outside-1_1_41" maskUnits="userSpaceOnUse" x="-1" y="-2" width="430" height="244" fill="black">
<rect fill="white" x="-1" y="-2" width="430" height="244"/>
<path d="M0.58357 120.082C0.58357 87.0652 13.0043 58.9221 37.8456 35.653C63.0014 12.0694 94.1317 0.277617 131.237 0.277617C168.341 0.277617 198.528 10.0255 221.797 29.5212C245.381 48.7025 257.173 78.8895 257.173 120.082C257.173 153.099 244.595 181.399 219.439 204.983C194.598 228.252 163.625 239.887 126.52 239.887C89.415 239.887 59.0708 230.296 35.4873 211.115C12.2181 191.619 0.58357 161.275 0.58357 120.082ZM38.3173 120.082C38.3173 159.703 46.6501 188.946 63.3159 207.813C79.9816 226.68 101.364 236.113 127.463 236.113C153.562 236.113 175.416 224.793 193.026 202.153C210.635 179.513 219.439 152.156 219.439 120.082C219.439 80.4618 211.106 51.2181 194.441 32.3513C177.775 13.4844 156.392 4.05098 130.293 4.05098C104.194 4.05098 82.3399 15.3711 64.7309 38.0113C47.1218 60.6515 38.3173 88.0085 38.3173 120.082ZM330.492 5.93767C306.594 5.93767 285.683 14.8994 267.76 32.8229L265.401 29.9929C286.469 11.4405 308.481 2.16431 331.435 2.16431C354.704 2.16431 372.313 6.88102 384.262 16.3144C396.211 25.7479 402.186 40.0552 402.186 59.2365C402.186 78.1034 391.023 106.561 368.697 144.609C346.372 182.343 321.53 212.215 294.173 234.227H385.206C406.903 234.227 419.952 227.938 424.355 215.36L427.185 216.775C427.185 218.033 426.084 220.234 423.883 223.378C421.682 226.208 419.166 228.567 416.336 230.453C408.789 235.484 398.413 238 385.206 238H248.893C278.451 215.674 305.022 185.173 328.605 146.496C352.503 107.819 364.452 78.2606 364.452 57.8215C364.452 23.2323 353.132 5.93767 330.492 5.93767Z"/>
</mask>
<path d="M37.8456 35.653L38.9204 36.8004L38.9209 36.8L37.8456 35.653ZM221.797 29.5212L220.788 30.7264L220.797 30.7337L220.805 30.741L221.797 29.5212ZM219.439 204.983L220.514 206.13L220.514 206.13L219.439 204.983ZM35.4873 211.115L34.4775 212.32L34.4863 212.327L34.4952 212.334L35.4873 211.115ZM63.3159 207.813L64.4942 206.772L63.3159 207.813ZM193.026 202.153L194.267 203.118L193.026 202.153ZM194.441 32.3513L195.619 31.3104L194.441 32.3513ZM64.7309 38.0113L63.4898 37.0461L64.7309 38.0113ZM2.15581 120.082C2.15581 87.5149 14.3853 59.7827 38.9204 36.8004L36.7708 34.5055C11.6232 58.0615 -0.988668 86.6154 -0.988668 120.082H2.15581ZM38.9209 36.8C63.7619 13.5115 94.4979 1.84985 131.237 1.84985V-1.29462C93.7655 -1.29462 62.2409 10.6273 36.7703 34.506L38.9209 36.8ZM131.237 1.84985C168.057 1.84985 197.861 11.5172 220.788 30.7264L222.807 28.3161C199.196 8.53375 168.625 -1.29462 131.237 -1.29462V1.84985ZM220.805 30.741C243.903 49.5268 255.601 79.1841 255.601 120.082H258.745C258.745 78.5949 246.859 47.8783 222.79 28.3015L220.805 30.741ZM255.601 120.082C255.601 152.643 243.218 180.535 218.364 203.836L220.514 206.13C245.971 182.264 258.745 153.555 258.745 120.082H255.601ZM218.364 203.836C193.842 226.806 163.265 238.314 126.52 238.314V241.459C163.985 241.459 195.354 229.698 220.514 206.13L218.364 203.836ZM126.52 238.314C89.694 238.314 59.7247 228.801 36.4793 209.895L34.4952 212.334C58.417 231.791 89.136 241.459 126.52 241.459V238.314ZM36.497 209.91C13.7 190.809 2.15581 160.985 2.15581 120.082H-0.988668C-0.988668 161.564 10.7363 192.429 34.4775 212.32L36.497 209.91ZM36.745 120.082C36.745 159.876 45.1071 189.574 62.1375 208.854L64.4942 206.772C48.1932 188.318 39.8895 159.529 39.8895 120.082H36.745ZM62.1375 208.854C79.114 228.073 100.932 237.686 127.463 237.686V234.541C101.796 234.541 80.8492 225.287 64.4942 206.772L62.1375 208.854ZM127.463 237.686C154.1 237.686 176.393 226.098 194.267 203.118L191.784 201.188C174.439 223.488 153.025 234.541 127.463 234.541V237.686ZM194.267 203.118C212.116 180.169 221.011 152.462 221.011 120.082H217.867C217.867 151.85 209.154 178.856 191.784 201.188L194.267 203.118ZM221.011 120.082C221.011 80.2878 212.649 50.5901 195.619 31.3104L193.262 33.3921C209.563 51.8461 217.867 80.6357 217.867 120.082H221.011ZM195.619 31.3104C178.642 12.0918 156.824 2.47874 130.293 2.47874V5.62321C155.96 5.62321 176.907 14.877 193.262 33.3921L195.619 31.3104ZM130.293 2.47874C103.656 2.47874 81.363 14.0663 63.4898 37.0461L65.9719 38.9766C83.3169 16.6759 104.732 5.62321 130.293 5.62321V2.47874ZM63.4898 37.0461C45.6408 59.9948 36.745 87.7025 36.745 120.082H39.8895C39.8895 88.3145 48.6028 61.3083 65.9719 38.9766L63.4898 37.0461ZM267.76 32.8229L266.552 33.8295L267.654 35.1521L268.871 33.9347L267.76 32.8229ZM265.401 29.9929L264.362 28.813L263.214 29.8241L264.193 30.9994L265.401 29.9929ZM384.262 16.3144L385.237 15.0804L384.262 16.3144ZM368.697 144.609L370.05 145.41L370.053 145.405L368.697 144.609ZM294.173 234.227L293.188 233.002L289.711 235.799H294.173V234.227ZM424.355 215.36L425.058 213.954L423.46 213.155L422.871 214.84L424.355 215.36ZM427.185 216.775H428.757V215.803L427.888 215.369L427.185 216.775ZM423.883 223.378L425.124 224.343L425.148 224.312L425.171 224.28L423.883 223.378ZM416.336 230.453L415.464 229.145L416.336 230.453ZM248.893 238L247.945 236.745L244.203 239.572H248.893V238ZM328.605 146.496L327.268 145.669L327.263 145.677L328.605 146.496ZM330.492 4.36543C306.15 4.36543 284.846 13.5127 266.648 31.7112L268.871 33.9347C286.52 16.2862 307.038 7.5099 330.492 7.5099V4.36543ZM268.967 31.8164L266.609 28.9864L264.193 30.9994L266.552 33.8295L268.967 31.8164ZM266.44 31.1729C287.288 12.8144 308.944 3.73654 331.435 3.73654V0.592072C308.018 0.592072 285.65 10.0666 264.362 28.813L266.44 31.1729ZM331.435 3.73654C354.528 3.73654 371.73 8.42322 383.288 17.5485L385.237 15.0804C372.897 5.33881 354.881 0.592072 331.435 0.592072V3.73654ZM383.288 17.5485C394.764 26.608 400.614 40.3993 400.614 59.2365H403.758C403.758 39.7112 397.659 24.8877 385.237 15.0804L383.288 17.5485ZM400.614 59.2365C400.614 68.3894 397.899 80.0105 392.35 94.1557C386.809 108.283 378.479 124.832 367.341 143.813L370.053 145.405C381.241 126.338 389.656 109.635 395.277 95.304C400.892 80.9916 403.758 68.9506 403.758 59.2365H400.614ZM367.344 143.808C345.091 181.419 320.366 211.134 293.188 233.002L295.159 235.452C322.694 213.297 347.652 183.267 370.05 145.41L367.344 143.808ZM294.173 235.799H385.206V232.654H294.173V235.799ZM385.206 235.799C407.09 235.799 421.09 229.445 425.839 215.879L422.871 214.84C418.814 226.43 406.715 232.654 385.206 232.654V235.799ZM423.651 216.766L426.481 218.181L427.888 215.369L425.058 213.954L423.651 216.766ZM425.612 216.775C425.612 217.022 425.479 217.613 424.953 218.666C424.451 219.67 423.673 220.937 422.595 222.477L425.171 224.28C426.294 222.675 427.167 221.269 427.765 220.072C428.34 218.924 428.757 217.785 428.757 216.775H425.612ZM422.642 222.413C420.539 225.117 418.146 227.357 415.464 229.145L417.208 231.761C420.186 229.776 422.825 227.3 425.124 224.343L422.642 222.413ZM415.464 229.145C408.268 233.942 398.237 236.428 385.206 236.428V239.572C398.589 239.572 409.31 237.027 417.208 231.761L415.464 229.145ZM385.206 236.428H248.893V239.572H385.206V236.428ZM249.84 239.255C279.587 216.786 306.283 186.124 329.948 147.314L327.263 145.677C303.76 184.222 277.315 214.562 247.945 236.745L249.84 239.255ZM329.943 147.322C353.848 108.633 366.025 78.742 366.025 57.8215H362.88C362.88 77.7793 351.158 107.004 327.268 145.669L329.943 147.322ZM366.025 57.8215C366.025 40.4055 363.184 27.0707 357.278 18.0476C351.296 8.90858 342.283 4.36543 330.492 4.36543V7.5099C341.342 7.5099 349.308 11.6141 354.647 19.7697C360.061 28.0412 362.88 40.6483 362.88 57.8215H366.025Z" fill="white" mask="url(#path-1-outside-1_1_41)"/>
</g>
</svg>
