<svg width="361" height="274" viewBox="0 0 361 274" fill="none" xmlns="http://www.w3.org/2000/svg">
<g opacity="0.5">
<mask id="path-1-outside-1_71_23" maskUnits="userSpaceOnUse" x="-1" y="-2" width="393" height="290" fill="black">
<rect fill="white" x="-1" y="-2" width="393" height="290"/>
<path d="M0.58357 120.082C0.58357 87.0652 13.0043 58.9221 37.8456 35.653C63.0014 12.0694 94.1317 0.277617 131.237 0.277617C168.341 0.277617 198.528 10.0255 221.797 29.5212C245.381 48.7025 257.173 78.8895 257.173 120.082C257.173 153.099 244.595 181.399 219.439 204.983C194.598 228.252 163.625 239.887 126.52 239.887C89.415 239.887 59.0708 230.296 35.4873 211.115C12.2181 191.619 0.58357 161.275 0.58357 120.082ZM38.3173 120.082C38.3173 159.703 46.6501 188.946 63.3159 207.813C79.9816 226.68 101.364 236.113 127.463 236.113C153.562 236.113 175.416 224.793 193.026 202.153C210.635 179.513 219.439 152.156 219.439 120.082C219.439 80.4618 211.106 51.2181 194.441 32.3513C177.775 13.4844 156.392 4.05098 130.293 4.05098C104.194 4.05098 82.3399 15.3711 64.7309 38.0113C47.1218 60.6515 38.3173 88.0085 38.3173 120.082ZM352.078 47.4448C352.078 19.7734 341.859 5.93767 321.42 5.93767C302.867 5.93767 283.214 10.3399 262.461 19.1445L260.574 15.8428C281.328 6.72379 302.081 2.16431 322.835 2.16431C333.526 2.16431 344.532 3.73654 355.852 6.88102C378.492 13.17 389.812 26.6912 389.812 47.4448C389.812 63.796 383.051 77.6317 369.53 88.9518C356.323 99.9575 340.129 108.605 320.948 114.894C338.871 116.78 354.122 122.441 366.7 131.874C379.278 140.993 385.567 153.728 385.567 170.079C385.567 186.431 381.165 201.367 372.36 214.888C363.87 228.095 352.864 239.258 339.343 248.377C311.357 267.558 282.743 279.822 253.499 285.167L253.027 281.394C276.611 275.105 298.308 261.584 318.118 240.83C337.928 220.391 347.833 197.436 347.833 171.966C347.833 154.671 344.06 141.779 336.513 133.289C329.281 124.484 320.791 119.453 311.043 118.195C305.383 120.397 300.666 121.654 296.893 121.969L295.006 118.667C311.357 113.636 324.879 104.831 335.57 92.2535C346.575 79.3612 352.078 64.4249 352.078 47.4448Z"/>
</mask>
<path d="M37.8456 35.653L38.9204 36.8004L38.9209 36.8L37.8456 35.653ZM221.797 29.5212L220.788 30.7264L220.797 30.7337L220.805 30.741L221.797 29.5212ZM219.439 204.983L220.514 206.13L220.514 206.13L219.439 204.983ZM35.4873 211.115L34.4775 212.32L34.4863 212.327L34.4952 212.334L35.4873 211.115ZM63.3159 207.813L64.4942 206.772L63.3159 207.813ZM193.026 202.153L194.267 203.118L194.267 203.118L193.026 202.153ZM194.441 32.3513L195.619 31.3104L195.619 31.3104L194.441 32.3513ZM64.7309 38.0113L63.4898 37.0461L63.4898 37.0461L64.7309 38.0113ZM2.15581 120.082C2.15581 87.5149 14.3853 59.7827 38.9204 36.8004L36.7708 34.5055C11.6232 58.0615 -0.988668 86.6154 -0.988668 120.082H2.15581ZM38.9209 36.8C63.7619 13.5115 94.4979 1.84986 131.237 1.84986V-1.29462C93.7655 -1.29462 62.2409 10.6273 36.7703 34.506L38.9209 36.8ZM131.237 1.84986C168.057 1.84986 197.861 11.5172 220.788 30.7264L222.807 28.3161C199.196 8.53375 168.625 -1.29462 131.237 -1.29462V1.84986ZM220.805 30.741C243.903 49.5268 255.601 79.1841 255.601 120.082H258.745C258.745 78.5949 246.859 47.8782 222.79 28.3015L220.805 30.741ZM255.601 120.082C255.601 152.643 243.218 180.535 218.364 203.836L220.514 206.13C245.971 182.264 258.745 153.555 258.745 120.082H255.601ZM218.364 203.836C193.842 226.806 163.265 238.314 126.52 238.314V241.459C163.985 241.459 195.354 229.698 220.514 206.13L218.364 203.836ZM126.52 238.314C89.694 238.314 59.7247 228.801 36.4793 209.895L34.4952 212.334C58.417 231.791 89.136 241.459 126.52 241.459V238.314ZM36.497 209.91C13.7 190.809 2.15581 160.985 2.15581 120.082H-0.988668C-0.988668 161.564 10.7363 192.429 34.4775 212.32L36.497 209.91ZM36.745 120.082C36.745 159.877 45.1071 189.574 62.1375 208.854L64.4942 206.772C48.1932 188.318 39.8895 159.529 39.8895 120.082H36.745ZM62.1375 208.854C79.114 228.073 100.932 237.686 127.463 237.686V234.541C101.796 234.541 80.8492 225.287 64.4942 206.772L62.1375 208.854ZM127.463 237.686C154.1 237.686 176.393 226.098 194.267 203.118L191.784 201.188C174.439 223.488 153.025 234.541 127.463 234.541V237.686ZM194.267 203.118C212.116 180.169 221.011 152.462 221.011 120.082H217.867C217.867 151.85 209.154 178.856 191.784 201.188L194.267 203.118ZM221.011 120.082C221.011 80.2878 212.649 50.5901 195.619 31.3104L193.262 33.3921C209.563 51.8461 217.867 80.6357 217.867 120.082H221.011ZM195.619 31.3104C178.642 12.0918 156.824 2.47874 130.293 2.47874V5.62322C155.96 5.62322 176.907 14.8771 193.262 33.3921L195.619 31.3104ZM130.293 2.47874C103.656 2.47874 81.363 14.0663 63.4898 37.0461L65.9719 38.9766C83.3169 16.6759 104.732 5.62322 130.293 5.62322V2.47874ZM63.4898 37.0461C45.6408 59.9948 36.745 87.7025 36.745 120.082H39.8895C39.8895 88.3145 48.6028 61.3083 65.9719 38.9766L63.4898 37.0461ZM262.461 19.1445L261.096 19.9245L261.789 21.1374L263.075 20.5918L262.461 19.1445ZM260.574 15.8428L259.942 14.4034L258.342 15.1061L259.209 16.6228L260.574 15.8428ZM355.852 6.88102L355.431 8.3959L355.431 8.3959L355.852 6.88102ZM369.53 88.9518L370.537 90.1597L370.539 90.1574L369.53 88.9518ZM320.948 114.894L320.458 113.4L320.783 116.457L320.948 114.894ZM366.7 131.874L365.757 133.132L365.767 133.139L365.777 133.147L366.7 131.874ZM372.36 214.888L371.043 214.03L371.038 214.038L372.36 214.888ZM339.343 248.377L338.464 247.073L338.454 247.08L339.343 248.377ZM253.499 285.167L251.939 285.362L252.145 287.013L253.782 286.714L253.499 285.167ZM253.027 281.394L252.622 279.875L251.297 280.228L251.467 281.589L253.027 281.394ZM318.118 240.83L316.989 239.736L316.981 239.744L318.118 240.83ZM336.513 133.289L335.298 134.287L335.318 134.311L335.338 134.333L336.513 133.289ZM311.043 118.195L311.244 116.636L310.847 116.585L310.473 116.73L311.043 118.195ZM296.893 121.969L295.528 122.749L296.025 123.619L297.023 123.536L296.893 121.969ZM295.006 118.667L294.544 117.164L292.667 117.742L293.641 119.447L295.006 118.667ZM335.57 92.2535L334.374 91.2327L334.372 91.2353L335.57 92.2535ZM353.65 47.4448C353.65 33.4616 351.077 22.6888 345.678 15.3803C340.214 7.98277 332.032 4.36543 321.42 4.36543V7.50991C331.246 7.50991 338.394 10.8104 343.149 17.2486C347.97 23.7758 350.506 33.7565 350.506 47.4448H353.65ZM321.42 4.36543C302.616 4.36543 282.754 8.82746 261.847 17.6971L263.075 20.5918C283.675 11.8524 303.118 7.50991 321.42 7.50991V4.36543ZM263.826 18.3644L261.939 15.0627L259.209 16.6228L261.096 19.9245L263.826 18.3644ZM261.206 17.2822C281.779 8.24265 302.318 3.73654 322.835 3.73654V0.592069C301.844 0.592069 280.876 5.20494 259.942 14.4034L261.206 17.2822ZM322.835 3.73654C333.37 3.73654 344.234 5.28576 355.431 8.3959L356.272 5.36614C344.829 2.18732 333.681 0.592069 322.835 0.592069V3.73654ZM355.431 8.3959C366.545 11.483 374.719 16.3006 380.116 22.7479C385.499 29.1772 388.24 37.3685 388.24 47.4448H391.384C391.384 36.7674 388.465 27.8214 382.527 20.7294C376.605 13.6555 367.799 8.56795 356.272 5.36614L355.431 8.3959ZM388.24 47.4448C388.24 63.2907 381.717 76.6982 368.521 87.7463L370.539 90.1574C384.386 78.5652 391.384 64.3014 391.384 47.4448H388.24ZM368.524 87.744C355.494 98.6024 339.483 107.162 320.458 113.4L321.438 116.388C340.776 110.048 357.153 101.313 370.537 90.1597L368.524 87.744ZM320.783 116.457C338.467 118.319 353.438 123.892 365.757 133.132L367.643 130.616C354.807 120.989 339.276 115.242 321.113 113.33L320.783 116.457ZM365.777 133.147C377.923 141.952 383.995 154.201 383.995 170.079H387.139C387.139 153.255 380.633 140.034 367.623 130.601L365.777 133.147ZM383.995 170.079C383.995 186.13 379.679 200.768 371.043 214.03L373.678 215.746C382.651 201.966 387.139 186.731 387.139 170.079H383.995ZM371.038 214.038C362.667 227.058 351.815 238.069 338.464 247.073L340.222 249.68C353.914 240.447 365.073 229.132 373.683 215.738L371.038 214.038ZM338.454 247.08C310.625 266.154 282.214 278.32 253.216 283.621L253.782 286.714C283.271 281.323 312.09 268.962 340.232 249.674L338.454 247.08ZM255.059 284.972L254.587 281.199L251.467 281.589L251.939 285.362L255.059 284.972ZM253.432 282.913C277.341 276.537 299.281 262.841 319.255 241.916L316.981 239.744C297.335 260.326 275.881 273.672 252.622 279.875L253.432 282.913ZM319.247 241.924C339.305 221.229 349.405 197.894 349.405 171.966H346.261C346.261 196.978 336.551 219.552 316.989 239.736L319.247 241.924ZM349.405 171.966C349.405 154.481 345.596 141.14 337.688 132.244L335.338 134.333C342.524 142.418 346.261 154.862 346.261 171.966H349.405ZM337.728 132.291C330.285 123.23 321.452 117.953 311.244 116.636L310.842 119.755C320.13 120.953 328.277 125.739 335.298 134.287L337.728 132.291ZM310.473 116.73C304.88 118.905 300.322 120.105 296.762 120.402L297.023 123.536C301.01 123.203 305.886 121.888 311.613 119.661L310.473 116.73ZM298.258 121.189L296.371 117.887L293.641 119.447L295.528 122.749L298.258 121.189ZM295.468 120.17C312.095 115.054 325.875 106.087 336.768 93.2718L334.372 91.2353C323.882 103.576 310.62 112.218 294.544 117.164L295.468 120.17ZM336.766 93.2743C348.015 80.0968 353.65 64.7984 353.65 47.4448H350.506C350.506 64.0514 345.136 78.6255 334.374 91.2327L336.766 93.2743Z" fill="white" mask="url(#path-1-outside-1_71_23)"/>
</g>
</svg>
