<svg width="236" height="387" viewBox="0 0 236 387" fill="none" xmlns="http://www.w3.org/2000/svg">
<g clip-path="url(#clip0_104_1632)">
<rect width="235.945" height="387" fill="black"/>
<mask id="path-1-outside-1_104_1632" maskUnits="userSpaceOnUse" x="93.7158" y="127.558" width="15" height="195" fill="black">
<rect fill="white" x="93.7158" y="127.558" width="15" height="195"/>
<path d="M107.234 128.207L107.234 130.511C107.234 132.047 107.174 133.086 107.056 133.627C106.937 134.174 106.633 134.617 106.143 134.957C105.659 135.303 104.883 135.475 103.816 135.475C102.842 135.475 102.187 135.354 101.852 135.112C101.517 134.87 101.316 134.393 101.249 133.681C101.089 134.326 100.875 134.759 100.607 134.98C100.339 135.202 100.092 135.339 99.8652 135.39C99.6435 135.447 99.0276 135.475 98.0173 135.475L94.7158 135.475L94.7158 132.452L98.8755 132.452C99.5456 132.452 99.9605 132.398 100.12 132.29C100.28 132.187 100.36 131.911 100.36 131.462L94.7158 131.462L94.7158 128.207L107.234 128.207ZM105.092 131.462L102.308 131.462C102.308 131.828 102.357 132.084 102.455 132.228C102.558 132.377 102.886 132.452 103.437 132.452L104.125 132.452C104.522 132.452 104.783 132.38 104.906 132.236C105.03 132.096 105.092 131.839 105.092 131.462ZM107.234 165.721L107.234 171.148L104.728 171.148L104.728 168.976L102.355 168.976L102.355 171.009L99.9734 171.009L99.9734 168.976L97.2209 168.976L97.2209 171.365L94.7158 171.365L94.7158 165.721L107.234 165.721ZM107.234 201.285L107.234 204.533C107.234 205.559 107.154 206.334 106.994 206.86C106.834 207.391 106.509 207.819 106.02 208.144C105.535 208.468 104.752 208.631 103.669 208.631C102.937 208.631 102.427 208.515 102.138 208.283C101.85 208.056 101.628 207.605 101.473 206.93C101.303 207.682 101.02 208.193 100.623 208.461C100.231 208.729 99.6281 208.863 98.8137 208.863L97.6539 208.863C96.8085 208.863 96.1823 208.765 95.7751 208.569C95.3679 208.378 95.0895 208.071 94.94 207.649C94.7906 207.226 94.7158 206.36 94.7158 205.051L94.7158 201.285L107.234 201.285ZM105.092 204.541L102.308 204.541C102.314 204.68 102.316 204.788 102.316 204.865C102.316 205.185 102.393 205.388 102.548 205.476C102.708 205.564 103.159 205.608 103.901 205.608C104.293 205.608 104.566 205.571 104.721 205.499C104.881 205.427 104.981 205.332 105.022 205.213C105.063 205.1 105.087 204.876 105.092 204.541ZM100.36 204.541L96.8575 204.541C96.873 204.999 96.9451 205.291 97.074 205.414C97.2029 205.543 97.5199 205.608 98.025 205.608L99.1925 205.608C99.7286 205.608 100.053 205.551 100.167 205.437C100.28 205.324 100.345 205.025 100.36 204.541ZM99.9038 246.453C98.6461 246.453 97.7544 246.422 97.2286 246.36C96.708 246.304 96.2312 246.118 95.7983 245.804C95.3653 245.494 95.0328 245.074 94.8009 244.543C94.5689 244.013 94.4529 243.394 94.4529 242.688C94.4529 242.018 94.5612 241.415 94.7777 240.879C94.9993 240.348 95.3292 239.92 95.7673 239.595C96.2055 239.27 96.6823 239.077 97.1977 239.015C97.7132 238.953 98.6152 238.922 99.9038 238.922L102.046 238.922C103.303 238.922 104.192 238.951 104.713 239.007C105.239 239.069 105.718 239.255 106.151 239.564C106.584 239.879 106.917 240.301 107.148 240.832C107.38 241.363 107.496 241.982 107.496 242.688C107.496 243.358 107.386 243.958 107.164 244.489C106.947 245.025 106.62 245.456 106.182 245.781C105.744 246.105 105.267 246.299 104.752 246.36C104.236 246.422 103.334 246.453 102.046 246.453L99.9038 246.453ZM104.017 243.198C104.6 243.198 104.971 243.165 105.13 243.098C105.295 243.036 105.378 242.904 105.378 242.703C105.378 242.533 105.311 242.402 105.177 242.309C105.048 242.221 104.661 242.178 104.017 242.178L98.1719 242.178C97.4451 242.178 96.9967 242.206 96.8266 242.263C96.6565 242.324 96.5714 242.464 96.5714 242.68C96.5714 242.902 96.6694 243.043 96.8652 243.105C97.0611 243.167 97.5276 243.198 98.2647 243.198L104.017 243.198ZM107.234 276.652L107.234 278.956C107.234 280.492 107.174 281.531 107.056 282.072C106.937 282.619 106.633 283.062 106.143 283.402C105.659 283.747 104.883 283.92 103.816 283.92C102.842 283.92 102.187 283.799 101.852 283.557C101.517 283.314 101.316 282.838 101.249 282.126C101.089 282.771 100.875 283.204 100.607 283.425C100.339 283.647 100.092 283.784 99.8652 283.835C99.6435 283.892 99.0276 283.92 98.0173 283.92L94.7158 283.92L94.7158 280.897L98.8755 280.897C99.5456 280.897 99.9605 280.843 100.12 280.735C100.28 280.632 100.36 280.356 100.36 279.907L94.7158 279.907L94.7158 276.652L107.234 276.652ZM105.092 279.907L102.308 279.907C102.308 280.273 102.357 280.528 102.455 280.673C102.558 280.822 102.886 280.897 103.437 280.897L104.125 280.897C104.522 280.897 104.783 280.825 104.906 280.681C105.03 280.541 105.092 280.284 105.092 279.907ZM107.234 321.433L94.7158 321.433L94.7158 318.58L100.406 316.887L94.7158 316.887L94.7158 314.166L107.234 314.166L107.234 316.887L101.597 318.712L107.234 318.712L107.234 321.433Z"/>
</mask>
<path d="M107.234 128.207L107.629 128.207L107.629 127.811L107.234 127.811L107.234 128.207ZM107.056 133.627L106.669 133.543L106.669 133.543L107.056 133.627ZM106.143 134.957L105.917 134.632L105.914 134.635L106.143 134.957ZM101.249 133.681L101.643 133.644L100.865 133.586L101.249 133.681ZM99.8652 135.39L99.7774 135.004L99.7671 135.007L99.8652 135.39ZM94.7158 135.475L94.32 135.475L94.32 135.871L94.7158 135.871L94.7158 135.475ZM94.7158 132.452L94.7158 132.056L94.32 132.056L94.32 132.452L94.7158 132.452ZM100.12 132.29L99.9057 131.957L99.8983 131.962L100.12 132.29ZM100.36 131.462L100.756 131.462L100.756 131.067L100.36 131.067L100.36 131.462ZM94.7158 131.462L94.32 131.462L94.32 131.858L94.7158 131.858L94.7158 131.462ZM94.7158 128.207L94.7158 127.811L94.32 127.811L94.32 128.207L94.7158 128.207ZM105.092 131.462L105.488 131.462L105.488 131.067L105.092 131.067L105.092 131.462ZM102.308 131.462L102.308 131.067L101.913 131.067L101.913 131.462L102.308 131.462ZM102.455 132.228L102.128 132.45L102.129 132.453L102.455 132.228ZM104.906 132.236L104.61 131.973L104.606 131.978L104.906 132.236ZM106.838 128.207L106.838 130.511L107.629 130.511L107.629 128.207L106.838 128.207ZM106.838 130.511C106.838 132.052 106.777 133.049 106.669 133.543L107.442 133.712C107.571 133.123 107.629 132.043 107.629 130.511L106.838 130.511ZM106.669 133.543C106.573 133.985 106.331 134.345 105.917 134.632L106.369 135.282C106.935 134.889 107.301 134.362 107.443 133.711L106.669 133.543ZM105.914 134.635C105.531 134.907 104.858 135.079 103.816 135.079L103.816 135.871C104.908 135.871 105.786 135.698 106.373 135.28L105.914 134.635ZM103.816 135.079C103.343 135.079 102.962 135.05 102.667 134.995C102.366 134.939 102.184 134.863 102.084 134.791L101.62 135.433C101.856 135.603 102.169 135.708 102.522 135.774C102.882 135.84 103.315 135.871 103.816 135.871L103.816 135.079ZM102.084 134.791C101.89 134.651 101.707 134.321 101.643 133.644L100.855 133.719C100.925 134.465 101.144 135.088 101.62 135.433L102.084 134.791ZM100.865 133.586C100.71 134.212 100.521 134.538 100.355 134.675L100.86 135.285C101.23 134.979 101.469 134.439 101.633 133.777L100.865 133.586ZM100.355 134.675C100.113 134.875 99.9213 134.971 99.7774 135.004L99.9529 135.776C100.263 135.706 100.566 135.529 100.86 135.285L100.355 134.675ZM99.7671 135.007C99.701 135.024 99.5304 135.044 99.2188 135.058C98.9194 135.072 98.5196 135.079 98.0173 135.079L98.0173 135.871C98.5252 135.871 98.9385 135.864 99.2552 135.849C99.5595 135.835 99.8077 135.813 99.9633 135.774L99.7671 135.007ZM98.0173 135.079L94.7158 135.079L94.7158 135.871L98.0173 135.871L98.0173 135.079ZM95.1117 135.475L95.1117 132.452L94.32 132.452L94.32 135.475L95.1117 135.475ZM94.7158 132.848L98.8755 132.848L98.8755 132.056L94.7158 132.056L94.7158 132.848ZM98.8755 132.848C99.2188 132.848 99.5091 132.834 99.7405 132.804C99.9537 132.776 100.179 132.728 100.342 132.617L99.8983 131.962C99.9014 131.96 99.8398 131.993 99.6381 132.019C99.4545 132.043 99.2023 132.056 98.8755 132.056L98.8755 132.848ZM100.335 132.622C100.527 132.498 100.627 132.3 100.68 132.116C100.735 131.928 100.756 131.705 100.756 131.462L99.9641 131.462C99.9641 131.668 99.9453 131.808 99.9199 131.895C99.8934 131.987 99.8731 131.978 99.9057 131.957L100.335 132.622ZM100.36 131.067L94.7158 131.067L94.7158 131.858L100.36 131.858L100.36 131.067ZM95.1117 131.462L95.1117 128.207L94.32 128.207L94.32 131.462L95.1117 131.462ZM94.7158 128.603L107.234 128.603L107.234 127.811L94.7158 127.811L94.7158 128.603ZM105.092 131.067L102.308 131.067L102.308 131.858L105.092 131.858L105.092 131.067ZM101.913 131.462C101.913 131.837 101.958 132.199 102.128 132.45L102.783 132.006C102.757 131.968 102.704 131.819 102.704 131.462L101.913 131.462ZM102.129 132.453C102.269 132.655 102.503 132.739 102.69 132.782C102.895 132.829 103.148 132.848 103.437 132.848L103.437 132.056C103.175 132.056 102.989 132.038 102.866 132.01C102.726 131.978 102.745 131.95 102.781 132.003L102.129 132.453ZM103.437 132.848L104.125 132.848L104.125 132.056L103.437 132.056L103.437 132.848ZM104.125 132.848C104.344 132.848 104.547 132.828 104.724 132.779C104.899 132.731 105.076 132.645 105.207 132.493L104.606 131.978C104.612 131.97 104.597 131.993 104.513 132.016C104.429 132.04 104.303 132.056 104.125 132.056L104.125 132.848ZM105.202 132.499C105.43 132.242 105.488 131.852 105.488 131.462L104.696 131.462C104.696 131.826 104.63 131.951 104.61 131.973L105.202 132.499ZM107.234 165.721L107.629 165.721L107.629 165.325L107.234 165.325L107.234 165.721ZM107.234 171.148L107.234 171.544L107.629 171.544L107.629 171.148L107.234 171.148ZM104.728 171.148L104.333 171.148L104.333 171.544L104.728 171.544L104.728 171.148ZM104.728 168.976L105.124 168.976L105.124 168.58L104.728 168.58L104.728 168.976ZM102.355 168.976L102.355 168.58L101.959 168.58L101.959 168.976L102.355 168.976ZM102.355 171.009L102.355 171.405L102.751 171.405L102.751 171.009L102.355 171.009ZM99.9734 171.009L99.5775 171.009L99.5775 171.405L99.9734 171.405L99.9734 171.009ZM99.9734 168.976L100.369 168.976L100.369 168.58L99.9734 168.58L99.9734 168.976ZM97.2209 168.976L97.2209 168.58L96.825 168.58L96.825 168.976L97.2209 168.976ZM97.2209 171.365L97.2209 171.761L97.6168 171.761L97.6168 171.365L97.2209 171.365ZM94.7158 171.365L94.32 171.365L94.32 171.761L94.7158 171.761L94.7158 171.365ZM94.7158 165.721L94.7158 165.325L94.32 165.325L94.32 165.721L94.7158 165.721ZM106.838 165.721L106.838 171.148L107.629 171.148L107.629 165.721L106.838 165.721ZM107.234 170.752L104.728 170.752L104.728 171.544L107.234 171.544L107.234 170.752ZM105.124 171.148L105.124 168.976L104.333 168.976L104.333 171.148L105.124 171.148ZM104.728 168.58L102.355 168.58L102.355 169.372L104.728 169.372L104.728 168.58ZM101.959 168.976L101.959 171.009L102.751 171.009L102.751 168.976L101.959 168.976ZM102.355 170.613L99.9734 170.613L99.9734 171.405L102.355 171.405L102.355 170.613ZM100.369 171.009L100.369 168.976L99.5776 168.976L99.5775 171.009L100.369 171.009ZM99.9734 168.58L97.2209 168.58L97.2209 169.372L99.9734 169.372L99.9734 168.58ZM96.825 168.976L96.825 171.365L97.6168 171.365L97.6168 168.976L96.825 168.976ZM97.2209 170.969L94.7158 170.969L94.7158 171.761L97.2209 171.761L97.2209 170.969ZM95.1117 171.365L95.1117 165.721L94.32 165.721L94.32 171.365L95.1117 171.365ZM94.7158 166.116L107.234 166.116L107.234 165.325L94.7158 165.325L94.7158 166.116ZM107.234 201.285L107.629 201.285L107.629 200.89L107.234 200.89L107.234 201.285ZM106.994 206.86L106.615 206.745L106.615 206.746L106.994 206.86ZM106.02 208.144L105.801 207.814L105.799 207.815L106.02 208.144ZM102.138 208.283L102.386 207.974L102.383 207.971L102.138 208.283ZM101.473 206.93L101.859 206.841L101.087 206.842L101.473 206.93ZM100.623 208.461L100.401 208.133L100.399 208.134L100.623 208.461ZM95.7751 208.569L95.9467 208.212L95.943 208.21L95.7751 208.569ZM94.7158 201.285L94.7158 200.89L94.32 200.89L94.32 201.285L94.7158 201.285ZM105.092 204.541L105.488 204.547L105.494 204.145L105.092 204.145L105.092 204.541ZM102.308 204.541L102.308 204.145L101.898 204.145L101.913 204.555L102.308 204.541ZM102.548 205.476L102.353 205.821L102.358 205.823L102.548 205.476ZM104.721 205.499L104.558 205.139L104.553 205.141L104.721 205.499ZM105.022 205.213L104.65 205.078L104.648 205.083L105.022 205.213ZM100.36 204.541L100.756 204.553L100.769 204.145L100.36 204.145L100.36 204.541ZM96.8575 204.541L96.8575 204.145L96.4481 204.145L96.4619 204.554L96.8575 204.541ZM97.074 205.414L97.354 205.134L97.3482 205.129L97.074 205.414ZM106.838 201.285L106.838 204.533L107.629 204.533L107.629 201.285L106.838 201.285ZM106.838 204.533C106.838 205.547 106.758 206.276 106.615 206.745L107.373 206.975C107.55 206.393 107.629 205.57 107.629 204.533L106.838 204.533ZM106.615 206.746C106.483 207.183 106.219 207.537 105.801 207.814L106.238 208.473C106.8 208.101 107.185 207.599 107.373 206.974L106.615 206.746ZM105.799 207.815C105.415 208.072 104.731 208.235 103.669 208.235L103.669 209.027C104.773 209.027 105.655 208.865 106.24 208.472L105.799 207.815ZM103.669 208.235C102.953 208.235 102.563 208.116 102.386 207.974L101.89 208.591C102.291 208.913 102.922 209.027 103.669 209.027L103.669 208.235ZM102.383 207.971C102.206 207.832 102.009 207.496 101.859 206.841L101.087 207.018C101.247 207.714 101.494 208.28 101.894 208.594L102.383 207.971ZM101.087 206.842C100.926 207.554 100.676 207.947 100.401 208.133L100.844 208.789C101.363 208.438 101.68 207.811 101.86 207.017L101.087 206.842ZM100.399 208.134C100.106 208.335 99.5991 208.467 98.8137 208.467L98.8137 209.258C99.657 209.258 100.357 209.122 100.846 208.787L100.399 208.134ZM98.8137 208.467L97.6539 208.467L97.6539 209.258L98.8137 209.258L98.8137 208.467ZM97.6539 208.467C96.8249 208.467 96.2718 208.368 95.9467 208.212L95.6035 208.926C96.0928 209.161 96.7921 209.258 97.6539 209.258L97.6539 208.467ZM95.943 208.21C95.6314 208.064 95.4273 207.839 95.3133 207.517L94.5668 207.781C94.7518 208.304 95.1043 208.692 95.6072 208.927L95.943 208.21ZM95.3133 207.517C95.2558 207.354 95.2029 207.073 95.1663 206.648C95.1302 206.231 95.1117 205.699 95.1117 205.051L94.32 205.051C94.32 205.712 94.3388 206.268 94.3775 206.716C94.4156 207.158 94.4748 207.521 94.5668 207.781L95.3133 207.517ZM95.1117 205.051L95.1117 201.285L94.32 201.285L94.32 205.051L95.1117 205.051ZM94.7158 201.681L107.234 201.681L107.234 200.89L94.7158 200.89L94.7158 201.681ZM105.092 204.145L102.308 204.145L102.308 204.936L105.092 204.936L105.092 204.145ZM101.913 204.555C101.918 204.693 101.92 204.795 101.92 204.865L102.712 204.865C102.712 204.781 102.709 204.667 102.704 204.526L101.913 204.555ZM101.92 204.865C101.92 205.213 101.999 205.62 102.353 205.821L102.743 205.132C102.763 205.143 102.758 205.153 102.744 205.117C102.729 205.076 102.712 204.997 102.712 204.865L101.92 204.865ZM102.358 205.823C102.517 205.911 102.746 205.947 102.968 205.969C103.212 205.992 103.524 206.003 103.901 206.003L103.901 205.212C103.536 205.212 103.252 205.201 103.044 205.181C102.941 205.171 102.862 205.159 102.806 205.147C102.744 205.133 102.729 205.124 102.738 205.129L102.358 205.823ZM103.901 206.003C104.295 206.003 104.647 205.971 104.888 205.858L104.553 205.141C104.485 205.172 104.291 205.212 103.901 205.212L103.901 206.003ZM104.884 205.86C105.102 205.761 105.307 205.6 105.396 205.343L104.648 205.083C104.651 205.077 104.653 205.078 104.643 205.086C104.633 205.097 104.608 205.116 104.558 205.139L104.884 205.86ZM105.394 205.349C105.462 205.163 105.483 204.874 105.488 204.547L104.696 204.534C104.691 204.878 104.665 205.036 104.65 205.078L105.394 205.349ZM100.36 204.145L96.8575 204.145L96.8575 204.936L100.36 204.936L100.36 204.145ZM96.4619 204.554C96.4701 204.798 96.4938 205.016 96.539 205.198C96.5822 205.373 96.6562 205.562 96.7999 205.7L97.3482 205.129C97.363 205.143 97.3365 205.125 97.3075 205.008C97.2806 204.899 97.2604 204.742 97.2532 204.527L96.4619 204.554ZM96.7941 205.694C96.9416 205.842 97.1465 205.91 97.3296 205.947C97.5242 205.987 97.7589 206.003 98.025 206.003L98.025 205.212C97.7859 205.212 97.6096 205.196 97.4873 205.171C97.3534 205.144 97.3353 205.116 97.3539 205.134L96.7941 205.694ZM98.025 206.003L99.1925 206.003L99.1925 205.212L98.025 205.212L98.025 206.003ZM99.1925 206.003C99.4711 206.003 99.7119 205.989 99.9062 205.955C100.079 205.925 100.297 205.867 100.447 205.717L99.8868 205.158C99.9229 205.121 99.9216 205.149 99.77 205.175C99.6396 205.198 99.45 205.212 99.1925 205.212L99.1925 206.003ZM100.447 205.717C100.587 205.577 100.651 205.379 100.687 205.212C100.726 205.029 100.748 204.807 100.756 204.553L99.9643 204.528C99.957 204.758 99.9383 204.928 99.9131 205.045C99.8847 205.177 99.8596 205.185 99.8868 205.158L100.447 205.717ZM97.2286 246.36L97.2749 245.967L97.2715 245.967L97.2286 246.36ZM95.7983 245.804L96.0309 245.483L96.0284 245.482L95.7983 245.804ZM94.7777 240.879L94.4123 240.726L94.4106 240.73L94.7777 240.879ZM104.713 239.007L104.759 238.614L104.756 238.614L104.713 239.007ZM106.151 239.564L106.384 239.244L106.381 239.242L106.151 239.564ZM107.164 244.489L106.799 244.337L106.797 244.341L107.164 244.489ZM105.13 243.098L104.991 242.727L104.984 242.73L104.977 242.733L105.13 243.098ZM105.177 242.309L105.402 241.983L105.399 241.982L105.177 242.309ZM96.8266 242.263L96.7014 241.887L96.6913 241.891L96.8266 242.263ZM96.8652 243.105L96.9845 242.728L96.8652 243.105ZM99.9038 246.057C98.6464 246.057 97.7753 246.026 97.2749 245.967L97.1824 246.754C97.7335 246.818 98.6459 246.849 99.9038 246.849L99.9038 246.057ZM97.2715 245.967C96.821 245.918 96.4093 245.758 96.0309 245.483L95.5657 246.124C96.0531 246.478 96.5951 246.69 97.1858 246.754L97.2715 245.967ZM96.0284 245.482C95.6587 245.218 95.3696 244.856 95.1636 244.385L94.4381 244.702C94.6961 245.292 95.0719 245.771 95.5682 246.126L96.0284 245.482ZM95.1636 244.385C94.9577 243.914 94.8488 243.351 94.8488 242.688L94.0571 242.688C94.0571 243.437 94.1801 244.111 94.4381 244.702L95.1636 244.385ZM94.8488 242.688C94.8488 242.061 94.95 241.509 95.1447 241.027L94.4106 240.73C94.1723 241.32 94.0571 241.975 94.0571 242.688L94.8488 242.688ZM95.143 241.031C95.3387 240.562 95.6254 240.193 96.0031 239.913L95.5316 239.277C95.033 239.647 94.6599 240.133 94.4124 240.726L95.143 241.031ZM96.0031 239.913C96.3888 239.627 96.8012 239.462 97.2449 239.408L97.1505 238.622C96.5633 238.693 96.0221 238.914 95.5316 239.277L96.0031 239.913ZM97.2449 239.408C97.7342 239.35 98.6147 239.318 99.9038 239.318L99.9038 238.527C98.6158 238.527 97.6922 238.557 97.1505 238.622L97.2449 239.408ZM99.9038 239.318L102.046 239.318L102.046 238.527L99.9038 238.527L99.9038 239.318ZM102.046 239.318C103.303 239.318 104.173 239.347 104.67 239.401L104.756 238.614C104.212 238.555 103.303 238.527 102.046 238.527L102.046 239.318ZM104.667 239.401C105.126 239.455 105.542 239.616 105.921 239.886L106.381 239.242C105.894 238.894 105.352 238.684 104.759 238.614L104.667 239.401ZM105.918 239.884C106.29 240.154 106.58 240.519 106.786 240.991L107.511 240.674C107.253 240.084 106.878 239.603 106.384 239.244L105.918 239.884ZM106.786 240.991C106.992 241.462 107.101 242.025 107.101 242.688L107.892 242.688C107.892 241.939 107.769 241.264 107.511 240.674L106.786 240.991ZM107.101 242.688C107.101 243.314 106.997 243.861 106.799 244.337L107.529 244.642C107.774 244.055 107.892 243.402 107.892 242.688L107.101 242.688ZM106.797 244.341C106.606 244.814 106.322 245.184 105.946 245.462L106.418 246.099C106.918 245.728 107.289 245.237 107.531 244.638L106.797 244.341ZM105.946 245.462C105.561 245.748 105.148 245.914 104.704 245.967L104.799 246.753C105.386 246.683 105.927 246.462 106.418 246.099L105.946 245.462ZM104.704 245.967C104.215 246.026 103.335 246.057 102.046 246.057L102.046 246.849C103.334 246.849 104.257 246.818 104.799 246.753L104.704 245.967ZM102.046 246.057L99.9038 246.057L99.9038 246.849L102.046 246.849L102.046 246.057ZM104.017 243.594C104.314 243.594 104.566 243.585 104.768 243.567C104.958 243.55 105.144 243.521 105.284 243.463L104.977 242.733C104.958 242.741 104.877 242.762 104.697 242.779C104.528 242.794 104.302 242.802 104.017 242.802L104.017 243.594ZM105.269 243.468C105.422 243.411 105.558 243.312 105.651 243.163C105.742 243.018 105.774 242.857 105.774 242.703L104.982 242.703C104.982 242.727 104.98 242.74 104.978 242.746C104.977 242.751 104.977 242.748 104.981 242.742C104.983 242.739 104.985 242.736 104.988 242.733C104.99 242.73 104.993 242.728 104.995 242.726C104.999 242.723 105 242.724 104.991 242.727L105.269 243.468ZM105.774 242.703C105.774 242.41 105.648 242.154 105.402 241.983L104.952 242.634C104.97 242.648 104.974 242.655 104.975 242.657C104.976 242.659 104.982 242.671 104.982 242.703L105.774 242.703ZM105.399 241.982C105.312 241.922 105.212 241.889 105.13 241.868C105.042 241.845 104.942 241.829 104.835 241.817C104.62 241.793 104.346 241.782 104.017 241.782L104.017 242.573C104.333 242.573 104.574 242.584 104.746 242.604C104.832 242.613 104.893 242.625 104.934 242.635C104.981 242.647 104.978 242.652 104.954 242.636L105.399 241.982ZM104.017 241.782L98.1719 241.782L98.1719 242.573L104.017 242.573L104.017 241.782ZM98.1719 241.782C97.8046 241.782 97.5015 241.789 97.2655 241.804C97.0432 241.818 96.841 241.84 96.7014 241.887L96.9518 242.638C96.9823 242.628 97.0894 242.608 97.3155 242.594C97.5279 242.58 97.8125 242.573 98.1719 242.573L98.1719 241.782ZM96.6913 241.891C96.5318 241.949 96.3919 242.052 96.2974 242.207C96.2064 242.356 96.1756 242.522 96.1756 242.68L96.9673 242.68C96.9673 242.621 96.979 242.61 96.973 242.62C96.9699 242.625 96.9651 242.63 96.9599 242.634C96.9552 242.638 96.9544 242.637 96.9619 242.635L96.6913 241.891ZM96.1756 242.68C96.1756 242.848 96.213 243.024 96.3192 243.178C96.4273 243.334 96.5809 243.431 96.746 243.483L96.9845 242.728C96.9678 242.723 96.9619 242.718 96.9622 242.719C96.9631 242.719 96.967 242.722 96.9706 242.728C96.9788 242.74 96.9673 242.733 96.9673 242.68L96.1756 242.68ZM96.746 243.483C96.8933 243.529 97.1007 243.554 97.3358 243.57C97.5812 243.586 97.8918 243.594 98.2647 243.594L98.2647 242.802C97.9005 242.802 97.6093 242.795 97.3882 242.78C97.1569 242.765 97.0331 242.743 96.9845 242.728L96.746 243.483ZM98.2647 243.594L104.017 243.594L104.017 242.802L98.2647 242.802L98.2647 243.594ZM107.234 276.652L107.629 276.652L107.629 276.256L107.234 276.256L107.234 276.652ZM107.056 282.072L106.669 281.988L106.669 281.988L107.056 282.072ZM106.143 283.402L105.917 283.077L105.914 283.08L106.143 283.402ZM101.249 282.126L101.643 282.089L100.865 282.031L101.249 282.126ZM99.8652 283.835L99.7774 283.449L99.7671 283.452L99.8652 283.835ZM94.7158 283.92L94.3199 283.92L94.3199 284.316L94.7158 284.316L94.7158 283.92ZM94.7158 280.897L94.7158 280.501L94.3199 280.501L94.3199 280.897L94.7158 280.897ZM100.12 280.735L99.9057 280.402L99.8983 280.407L100.12 280.735ZM100.36 279.907L100.756 279.907L100.756 279.511L100.36 279.511L100.36 279.907ZM94.7158 279.907L94.3199 279.907L94.3199 280.303L94.7158 280.303L94.7158 279.907ZM94.7158 276.652L94.7158 276.256L94.3199 276.256L94.3199 276.652L94.7158 276.652ZM105.092 279.907L105.488 279.907L105.488 279.511L105.092 279.511L105.092 279.907ZM102.308 279.907L102.308 279.511L101.913 279.511L101.913 279.907L102.308 279.907ZM102.455 280.673L102.128 280.895L102.129 280.898L102.455 280.673ZM104.906 280.681L104.61 280.417L104.606 280.423L104.906 280.681ZM106.838 276.652L106.838 278.956L107.629 278.956L107.629 276.652L106.838 276.652ZM106.838 278.956C106.838 280.497 106.777 281.494 106.669 281.988L107.442 282.157C107.571 281.568 107.629 280.488 107.629 278.956L106.838 278.956ZM106.669 281.988C106.573 282.43 106.331 282.79 105.917 283.077L106.369 283.727C106.935 283.334 107.301 282.807 107.443 282.156L106.669 281.988ZM105.914 283.08C105.531 283.352 104.858 283.524 103.816 283.524L103.816 284.316C104.908 284.316 105.786 284.143 106.373 283.724L105.914 283.08ZM103.816 283.524C103.343 283.524 102.962 283.495 102.667 283.44C102.366 283.384 102.184 283.308 102.084 283.236L101.62 283.878C101.856 284.048 102.169 284.153 102.522 284.219C102.882 284.285 103.315 284.316 103.816 284.316L103.816 283.524ZM102.084 283.236C101.89 283.096 101.707 282.766 101.643 282.089L100.855 282.163C100.925 282.91 101.144 283.533 101.62 283.878L102.084 283.236ZM100.865 282.031C100.71 282.657 100.521 282.983 100.355 283.12L100.86 283.73C101.23 283.424 101.469 282.884 101.633 282.222L100.865 282.031ZM100.355 283.12C100.113 283.32 99.9213 283.416 99.7774 283.449L99.9529 284.221C100.263 284.151 100.566 283.974 100.86 283.73L100.355 283.12ZM99.7671 283.452C99.701 283.468 99.5304 283.489 99.2188 283.503C98.9194 283.517 98.5196 283.524 98.0173 283.524L98.0173 284.316C98.5252 284.316 98.9385 284.309 99.2552 284.294C99.5595 284.28 99.8077 284.258 99.9633 284.219L99.7671 283.452ZM98.0173 283.524L94.7158 283.524L94.7158 284.316L98.0173 284.316L98.0173 283.524ZM95.1117 283.92L95.1117 280.897L94.3199 280.897L94.3199 283.92L95.1117 283.92ZM94.7158 281.293L98.8755 281.293L98.8755 280.501L94.7158 280.501L94.7158 281.293ZM98.8755 281.293C99.2188 281.293 99.5091 281.279 99.7405 281.249C99.9537 281.221 100.179 281.173 100.342 281.062L99.8983 280.407C99.9014 280.405 99.8398 280.438 99.6381 280.464C99.4545 280.488 99.2023 280.501 98.8755 280.501L98.8755 281.293ZM100.335 281.067C100.527 280.943 100.627 280.745 100.68 280.561C100.735 280.373 100.756 280.15 100.756 279.907L99.9641 279.907C99.9641 280.113 99.9453 280.252 99.9198 280.34C99.8934 280.432 99.8731 280.423 99.9057 280.402L100.335 281.067ZM100.36 279.511L94.7158 279.511L94.7158 280.303L100.36 280.303L100.36 279.511ZM95.1117 279.907L95.1117 276.652L94.3199 276.652L94.3199 279.907L95.1117 279.907ZM94.7158 277.048L107.234 277.048L107.234 276.256L94.7158 276.256L94.7158 277.048ZM105.092 279.511L102.308 279.511L102.308 280.303L105.092 280.303L105.092 279.511ZM101.913 279.907C101.913 280.282 101.958 280.644 102.128 280.895L102.783 280.451C102.757 280.413 102.704 280.264 102.704 279.907L101.913 279.907ZM102.129 280.898C102.269 281.1 102.503 281.184 102.69 281.227C102.895 281.274 103.148 281.293 103.437 281.293L103.437 280.501C103.175 280.501 102.989 280.483 102.866 280.455C102.726 280.423 102.745 280.395 102.781 280.448L102.129 280.898ZM103.437 281.293L104.125 281.293L104.125 280.501L103.437 280.501L103.437 281.293ZM104.125 281.293C104.344 281.293 104.547 281.273 104.724 281.224C104.899 281.176 105.076 281.09 105.207 280.938L104.606 280.423C104.612 280.415 104.597 280.438 104.513 280.461C104.429 280.485 104.303 280.501 104.125 280.501L104.125 281.293ZM105.202 280.944C105.43 280.687 105.488 280.297 105.488 279.907L104.696 279.907C104.696 280.271 104.63 280.396 104.61 280.418L105.202 280.944ZM107.234 321.433L107.234 321.829L107.629 321.829L107.629 321.433L107.234 321.433ZM94.7158 321.433L94.3199 321.433L94.3199 321.829L94.7158 321.829L94.7158 321.433ZM94.7158 318.58L94.6029 318.201L94.3199 318.285L94.3199 318.58L94.7158 318.58ZM100.406 316.887L100.519 317.267L100.406 316.491L100.406 316.887ZM94.7158 316.887L94.3199 316.887L94.3199 317.283L94.7158 317.283L94.7158 316.887ZM94.7158 314.166L94.7158 313.77L94.3199 313.77L94.3199 314.166L94.7158 314.166ZM107.234 314.166L107.629 314.166L107.629 313.77L107.234 313.77L107.234 314.166ZM107.234 316.887L107.355 317.264L107.629 317.175L107.629 316.887L107.234 316.887ZM101.597 318.712L101.475 318.335L101.597 319.108L101.597 318.712ZM107.234 318.712L107.629 318.712L107.629 318.316L107.234 318.316L107.234 318.712ZM107.234 321.038L94.7158 321.038L94.7158 321.829L107.234 321.829L107.234 321.038ZM95.1117 321.433L95.1117 318.58L94.3199 318.58L94.3199 321.433L95.1117 321.433ZM94.8287 318.96L100.519 317.267L100.293 316.508L94.6029 318.201L94.8287 318.96ZM100.406 316.491L94.7158 316.491L94.7158 317.283L100.406 317.283L100.406 316.491ZM95.1117 316.887L95.1117 314.166L94.3199 314.166L94.3199 316.887L95.1117 316.887ZM94.7158 314.561L107.234 314.561L107.234 313.77L94.7158 313.77L94.7158 314.561ZM106.838 314.166L106.838 316.887L107.629 316.887L107.629 314.166L106.838 314.166ZM107.112 316.511L101.475 318.335L101.719 319.088L107.355 317.264L107.112 316.511ZM101.597 319.108L107.234 319.108L107.234 318.316L101.597 318.316L101.597 319.108ZM106.838 318.712L106.838 321.433L107.629 321.433L107.629 318.712L106.838 318.712Z" fill="white" mask="url(#path-1-outside-1_104_1632)"/>
<path d="M51.1839 310.849L150.15 367.987V253.71L51.1839 310.849Z" fill="url(#paint0_angular_104_1632)"/>
<path d="M117.973 37.4517L216.939 94.59L216.939 -19.6867L117.973 37.4517ZM191.759 44.4497C195.624 40.5848 195.624 34.3186 191.759 30.4537L128.777 -32.5283C124.913 -36.3931 118.646 -36.3931 114.781 -32.5283C110.917 -28.6634 110.917 -22.3972 114.781 -18.5323L170.765 37.4517L114.781 93.4356C110.917 97.3005 110.917 103.567 114.781 107.432C118.646 111.296 124.913 111.296 128.777 107.432L191.759 44.4497Z" fill="url(#paint1_angular_104_1632)"/>
<path d="M51.1839 280.471L150.15 337.609V223.332L51.1839 280.471Z" fill="url(#paint2_angular_104_1632)"/>
<path d="M117.973 67.8289L216.939 124.967L216.939 10.6905L117.973 67.8289ZM191.759 74.8269C195.624 70.962 195.624 64.6958 191.759 60.8309L128.777 -2.15106C124.913 -6.01594 118.646 -6.01595 114.781 -2.15106C110.917 1.71382 110.917 7.98004 114.781 11.8449L170.765 67.8289L114.781 123.813C110.917 127.678 110.917 133.944 114.781 137.809C118.646 141.674 124.913 141.674 128.777 137.809L191.759 74.8269Z" fill="url(#paint3_angular_104_1632)"/>
<path d="M51.1839 250.093L150.15 307.232V192.955L51.1839 250.093Z" fill="url(#paint4_angular_104_1632)"/>
<path d="M117.973 98.2065L216.939 155.345L216.939 41.0682L117.973 98.2065ZM191.759 105.205C195.624 101.34 195.624 95.0734 191.759 91.2086L128.777 28.2266C124.913 24.3617 118.646 24.3617 114.781 28.2266C110.917 32.0915 110.917 38.3577 114.781 42.2226L170.765 98.2065L114.781 154.19C110.917 158.055 110.917 164.322 114.781 168.186C118.646 172.051 124.913 172.051 128.777 168.186L191.759 105.205Z" fill="url(#paint5_angular_104_1632)"/>
<path d="M51.1839 219.716L150.15 276.855V162.578L51.1839 219.716Z" fill="url(#paint6_angular_104_1632)"/>
<path d="M117.973 128.584L216.939 185.722L216.939 71.4456L117.973 128.584ZM191.759 135.582C195.624 131.717 195.624 125.451 191.759 121.586L128.777 58.6041C124.913 54.7392 118.646 54.7392 114.781 58.6041C110.917 62.4689 110.917 68.7352 114.781 72.6L170.765 128.584L114.781 184.568C110.917 188.433 110.917 194.699 114.781 198.564C118.646 202.429 124.913 202.429 128.777 198.564L191.759 135.582Z" fill="url(#paint7_angular_104_1632)"/>
<path d="M51.1839 189.339L150.15 246.477V132.201L51.1839 189.339Z" fill="url(#paint8_angular_104_1632)"/>
<path d="M117.973 158.961L216.939 216.1L216.939 101.823L117.973 158.961ZM191.759 165.959C195.624 162.095 195.624 155.828 191.759 151.963L128.777 88.9815C124.913 85.1166 118.646 85.1166 114.781 88.9815C110.917 92.8464 110.917 99.1126 114.781 102.977L170.765 158.961L114.781 214.945C110.917 218.81 110.917 225.076 114.781 228.941C118.646 232.806 124.913 232.806 128.777 228.941L191.759 165.959Z" fill="url(#paint9_angular_104_1632)"/>
<path d="M51.1839 158.961L150.15 216.1V101.823L51.1839 158.961Z" fill="url(#paint10_angular_104_1632)"/>
<path d="M117.973 189.339L216.939 246.477L216.939 132.201L117.973 189.339ZM191.759 196.337C195.624 192.472 195.624 186.206 191.759 182.341L128.777 119.359C124.913 115.494 118.646 115.494 114.781 119.359C110.917 123.224 110.917 129.49 114.781 133.355L170.765 189.339L114.781 245.323C110.917 249.188 110.917 255.454 114.781 259.319C118.646 263.184 124.913 263.184 128.777 259.319L191.759 196.337Z" fill="url(#paint11_angular_104_1632)"/>
<path d="M51.1839 128.584L150.15 185.722V71.4456L51.1839 128.584Z" fill="url(#paint12_angular_104_1632)"/>
<path d="M117.973 219.716L216.939 276.855L216.939 162.578L117.973 219.716ZM191.759 226.714C195.624 222.849 195.624 216.583 191.759 212.718L128.777 149.736C124.913 145.872 118.646 145.872 114.781 149.736C110.917 153.601 110.917 159.867 114.781 163.732L170.765 219.716L114.781 275.7C110.917 279.565 110.917 285.831 114.781 289.696C118.646 293.561 124.913 293.561 128.777 289.696L191.759 226.714Z" fill="url(#paint13_angular_104_1632)"/>
<path d="M51.1839 98.2065L150.15 155.345V41.0682L51.1839 98.2065Z" fill="url(#paint14_angular_104_1632)"/>
<path d="M117.973 250.093L216.939 307.232L216.939 192.955L117.973 250.093ZM191.759 257.091C195.624 253.226 195.624 246.96 191.759 243.095L128.777 180.113C124.913 176.248 118.646 176.248 114.781 180.113C110.917 183.978 110.917 190.244 114.781 194.109L170.765 250.093L114.781 306.077C110.917 309.942 110.917 316.208 114.781 320.073C118.646 323.938 124.913 323.938 128.777 320.073L191.759 257.091Z" fill="url(#paint15_angular_104_1632)"/>
<path d="M51.1839 67.8289L150.15 124.967V10.6905L51.1839 67.8289Z" fill="url(#paint16_angular_104_1632)"/>
<path d="M117.973 280.471L216.939 337.609L216.939 223.332L117.973 280.471ZM191.759 287.469C195.624 283.604 195.624 277.338 191.759 273.473L128.777 210.491C124.913 206.626 118.646 206.626 114.781 210.491C110.917 214.356 110.917 220.622 114.781 224.487L170.765 280.471L114.781 336.455C110.917 340.32 110.917 346.586 114.781 350.451C118.646 354.316 124.913 354.316 128.777 350.451L191.759 287.469Z" fill="url(#paint17_angular_104_1632)"/>
<path d="M51.1839 37.4517L150.15 94.59V-19.6867L51.1839 37.4517Z" fill="url(#paint18_angular_104_1632)"/>
<path d="M117.973 310.849L216.939 367.987L216.939 253.71L117.973 310.849ZM191.759 317.847C195.624 313.982 195.624 307.716 191.759 303.851L128.777 240.869C124.913 237.004 118.646 237.004 114.781 240.869C110.917 244.734 110.917 251 114.781 254.865L170.765 310.849L114.781 366.833C110.917 370.697 110.917 376.964 114.781 380.829C118.646 384.693 124.913 384.693 128.777 380.829L191.759 317.847Z" fill="url(#paint19_angular_104_1632)"/>
<g style="mix-blend-mode:multiply">
<rect width="595" height="842" fill="#00FFB3"/>
</g>
</g>
<defs>
<radialGradient id="paint0_angular_104_1632" cx="0" cy="0" r="1" gradientUnits="userSpaceOnUse" gradientTransform="translate(84.5783 310.349) rotate(-90) scale(0.5 33.3944)">
<stop stop-color="white"/>
<stop stop-color="#5200FF" stop-opacity="0"/>
<stop offset="0.135417" stop-color="#270000" stop-opacity="0.0846125"/>
<stop offset="0.541667" stop-opacity="0.1"/>
<stop offset="0.791667" stop-color="#FF0000" stop-opacity="0"/>
<stop offset="0.9999" stop-color="#260000"/>
<stop offset="1" stop-color="#1400FF" stop-opacity="0"/>
</radialGradient>
<radialGradient id="paint1_angular_104_1632" cx="0" cy="0" r="1" gradientUnits="userSpaceOnUse" gradientTransform="translate(151.367 37.9517) rotate(90) scale(0.5 33.3944)">
<stop stop-color="white"/>
<stop stop-color="#5200FF" stop-opacity="0"/>
<stop offset="0.135417" stop-color="#270000" stop-opacity="0.0846125"/>
<stop offset="0.541667" stop-opacity="0.1"/>
<stop offset="0.791667" stop-color="#FF0000" stop-opacity="0"/>
<stop offset="0.9999" stop-color="#260000"/>
<stop offset="1" stop-color="#1400FF" stop-opacity="0"/>
</radialGradient>
<radialGradient id="paint2_angular_104_1632" cx="0" cy="0" r="1" gradientUnits="userSpaceOnUse" gradientTransform="translate(84.5783 279.971) rotate(-90) scale(0.5 33.3944)">
<stop stop-color="white"/>
<stop stop-color="#5200FF" stop-opacity="0"/>
<stop offset="0.135417" stop-color="#270000" stop-opacity="0.0846125"/>
<stop offset="0.541667" stop-opacity="0.1"/>
<stop offset="0.791667" stop-color="#FF0000" stop-opacity="0"/>
<stop offset="0.9999" stop-color="#260000"/>
<stop offset="1" stop-color="#1400FF" stop-opacity="0"/>
</radialGradient>
<radialGradient id="paint3_angular_104_1632" cx="0" cy="0" r="1" gradientUnits="userSpaceOnUse" gradientTransform="translate(151.367 68.3289) rotate(90) scale(0.5 33.3944)">
<stop stop-color="white"/>
<stop stop-color="#5200FF" stop-opacity="0"/>
<stop offset="0.135417" stop-color="#270000" stop-opacity="0.0846125"/>
<stop offset="0.541667" stop-opacity="0.1"/>
<stop offset="0.791667" stop-color="#FF0000" stop-opacity="0"/>
<stop offset="0.9999" stop-color="#260000"/>
<stop offset="1" stop-color="#1400FF" stop-opacity="0"/>
</radialGradient>
<radialGradient id="paint4_angular_104_1632" cx="0" cy="0" r="1" gradientUnits="userSpaceOnUse" gradientTransform="translate(84.5783 249.593) rotate(-90) scale(0.5 33.3944)">
<stop stop-color="white"/>
<stop stop-color="#5200FF" stop-opacity="0"/>
<stop offset="0.135417" stop-color="#270000" stop-opacity="0.0846125"/>
<stop offset="0.541667" stop-opacity="0.1"/>
<stop offset="0.791667" stop-color="#FF0000" stop-opacity="0"/>
<stop offset="0.9999" stop-color="#260000"/>
<stop offset="1" stop-color="#1400FF" stop-opacity="0"/>
</radialGradient>
<radialGradient id="paint5_angular_104_1632" cx="0" cy="0" r="1" gradientUnits="userSpaceOnUse" gradientTransform="translate(151.367 98.7065) rotate(90) scale(0.5 33.3944)">
<stop stop-color="white"/>
<stop stop-color="#5200FF" stop-opacity="0"/>
<stop offset="0.135417" stop-color="#270000" stop-opacity="0.0846125"/>
<stop offset="0.541667" stop-opacity="0.1"/>
<stop offset="0.791667" stop-color="#FF0000" stop-opacity="0"/>
<stop offset="0.9999" stop-color="#260000"/>
<stop offset="1" stop-color="#1400FF" stop-opacity="0"/>
</radialGradient>
<radialGradient id="paint6_angular_104_1632" cx="0" cy="0" r="1" gradientUnits="userSpaceOnUse" gradientTransform="translate(84.5783 219.216) rotate(-90) scale(0.5 33.3944)">
<stop stop-color="white"/>
<stop stop-color="#5200FF" stop-opacity="0"/>
<stop offset="0.135417" stop-color="#270000" stop-opacity="0.0846125"/>
<stop offset="0.541667" stop-opacity="0.1"/>
<stop offset="0.791667" stop-color="#FF0000" stop-opacity="0"/>
<stop offset="0.9999" stop-color="#260000"/>
<stop offset="1" stop-color="#1400FF" stop-opacity="0"/>
</radialGradient>
<radialGradient id="paint7_angular_104_1632" cx="0" cy="0" r="1" gradientUnits="userSpaceOnUse" gradientTransform="translate(151.367 129.084) rotate(90) scale(0.5 33.3944)">
<stop stop-color="white"/>
<stop stop-color="#5200FF" stop-opacity="0"/>
<stop offset="0.135417" stop-color="#270000" stop-opacity="0.0846125"/>
<stop offset="0.541667" stop-opacity="0.1"/>
<stop offset="0.791667" stop-color="#FF0000" stop-opacity="0"/>
<stop offset="0.9999" stop-color="#260000"/>
<stop offset="1" stop-color="#1400FF" stop-opacity="0"/>
</radialGradient>
<radialGradient id="paint8_angular_104_1632" cx="0" cy="0" r="1" gradientUnits="userSpaceOnUse" gradientTransform="translate(84.5783 188.839) rotate(-90) scale(0.5 33.3944)">
<stop stop-color="white"/>
<stop stop-color="#5200FF" stop-opacity="0"/>
<stop offset="0.135417" stop-color="#270000" stop-opacity="0.0846125"/>
<stop offset="0.541667" stop-opacity="0.1"/>
<stop offset="0.791667" stop-color="#FF0000" stop-opacity="0"/>
<stop offset="0.9999" stop-color="#260000"/>
<stop offset="1" stop-color="#1400FF" stop-opacity="0"/>
</radialGradient>
<radialGradient id="paint9_angular_104_1632" cx="0" cy="0" r="1" gradientUnits="userSpaceOnUse" gradientTransform="translate(151.367 159.461) rotate(90) scale(0.5 33.3944)">
<stop stop-color="white"/>
<stop stop-color="#5200FF" stop-opacity="0"/>
<stop offset="0.135417" stop-color="#270000" stop-opacity="0.0846125"/>
<stop offset="0.541667" stop-opacity="0.1"/>
<stop offset="0.791667" stop-color="#FF0000" stop-opacity="0"/>
<stop offset="0.9999" stop-color="#260000"/>
<stop offset="1" stop-color="#1400FF" stop-opacity="0"/>
</radialGradient>
<radialGradient id="paint10_angular_104_1632" cx="0" cy="0" r="1" gradientUnits="userSpaceOnUse" gradientTransform="translate(84.5783 158.461) rotate(-90) scale(0.5 33.3944)">
<stop stop-color="white"/>
<stop stop-color="#5200FF" stop-opacity="0"/>
<stop offset="0.135417" stop-color="#270000" stop-opacity="0.0846125"/>
<stop offset="0.541667" stop-opacity="0.1"/>
<stop offset="0.791667" stop-color="#FF0000" stop-opacity="0"/>
<stop offset="0.9999" stop-color="#260000"/>
<stop offset="1" stop-color="#1400FF" stop-opacity="0"/>
</radialGradient>
<radialGradient id="paint11_angular_104_1632" cx="0" cy="0" r="1" gradientUnits="userSpaceOnUse" gradientTransform="translate(151.367 189.839) rotate(90) scale(0.5 33.3944)">
<stop stop-color="white"/>
<stop stop-color="#5200FF" stop-opacity="0"/>
<stop offset="0.135417" stop-color="#270000" stop-opacity="0.0846125"/>
<stop offset="0.541667" stop-opacity="0.1"/>
<stop offset="0.791667" stop-color="#FF0000" stop-opacity="0"/>
<stop offset="0.9999" stop-color="#260000"/>
<stop offset="1" stop-color="#1400FF" stop-opacity="0"/>
</radialGradient>
<radialGradient id="paint12_angular_104_1632" cx="0" cy="0" r="1" gradientUnits="userSpaceOnUse" gradientTransform="translate(84.5783 128.084) rotate(-90) scale(0.5 33.3944)">
<stop stop-color="white"/>
<stop stop-color="#5200FF" stop-opacity="0"/>
<stop offset="0.135417" stop-color="#270000" stop-opacity="0.0846125"/>
<stop offset="0.541667" stop-opacity="0.1"/>
<stop offset="0.791667" stop-color="#FF0000" stop-opacity="0"/>
<stop offset="0.9999" stop-color="#260000"/>
<stop offset="1" stop-color="#1400FF" stop-opacity="0"/>
</radialGradient>
<radialGradient id="paint13_angular_104_1632" cx="0" cy="0" r="1" gradientUnits="userSpaceOnUse" gradientTransform="translate(151.367 220.216) rotate(90) scale(0.5 33.3944)">
<stop stop-color="white"/>
<stop stop-color="#5200FF" stop-opacity="0"/>
<stop offset="0.135417" stop-color="#270000" stop-opacity="0.0846125"/>
<stop offset="0.541667" stop-opacity="0.1"/>
<stop offset="0.791667" stop-color="#FF0000" stop-opacity="0"/>
<stop offset="0.9999" stop-color="#260000"/>
<stop offset="1" stop-color="#1400FF" stop-opacity="0"/>
</radialGradient>
<radialGradient id="paint14_angular_104_1632" cx="0" cy="0" r="1" gradientUnits="userSpaceOnUse" gradientTransform="translate(84.5783 97.7065) rotate(-90) scale(0.5 33.3944)">
<stop stop-color="white"/>
<stop stop-color="#5200FF" stop-opacity="0"/>
<stop offset="0.135417" stop-color="#270000" stop-opacity="0.0846125"/>
<stop offset="0.541667" stop-opacity="0.1"/>
<stop offset="0.791667" stop-color="#FF0000" stop-opacity="0"/>
<stop offset="0.9999" stop-color="#260000"/>
<stop offset="1" stop-color="#1400FF" stop-opacity="0"/>
</radialGradient>
<radialGradient id="paint15_angular_104_1632" cx="0" cy="0" r="1" gradientUnits="userSpaceOnUse" gradientTransform="translate(151.367 250.593) rotate(90) scale(0.5 33.3944)">
<stop stop-color="white"/>
<stop stop-color="#5200FF" stop-opacity="0"/>
<stop offset="0.135417" stop-color="#270000" stop-opacity="0.0846125"/>
<stop offset="0.541667" stop-opacity="0.1"/>
<stop offset="0.791667" stop-color="#FF0000" stop-opacity="0"/>
<stop offset="0.9999" stop-color="#260000"/>
<stop offset="1" stop-color="#1400FF" stop-opacity="0"/>
</radialGradient>
<radialGradient id="paint16_angular_104_1632" cx="0" cy="0" r="1" gradientUnits="userSpaceOnUse" gradientTransform="translate(84.5783 67.3289) rotate(-90) scale(0.5 33.3944)">
<stop stop-color="white"/>
<stop stop-color="#5200FF" stop-opacity="0"/>
<stop offset="0.135417" stop-color="#270000" stop-opacity="0.0846125"/>
<stop offset="0.541667" stop-opacity="0.1"/>
<stop offset="0.791667" stop-color="#FF0000" stop-opacity="0"/>
<stop offset="0.9999" stop-color="#260000"/>
<stop offset="1" stop-color="#1400FF" stop-opacity="0"/>
</radialGradient>
<radialGradient id="paint17_angular_104_1632" cx="0" cy="0" r="1" gradientUnits="userSpaceOnUse" gradientTransform="translate(151.367 280.971) rotate(90) scale(0.5 33.3944)">
<stop stop-color="white"/>
<stop stop-color="#5200FF" stop-opacity="0"/>
<stop offset="0.135417" stop-color="#270000" stop-opacity="0.0846125"/>
<stop offset="0.541667" stop-opacity="0.1"/>
<stop offset="0.791667" stop-color="#FF0000" stop-opacity="0"/>
<stop offset="0.9999" stop-color="#260000"/>
<stop offset="1" stop-color="#1400FF" stop-opacity="0"/>
</radialGradient>
<radialGradient id="paint18_angular_104_1632" cx="0" cy="0" r="1" gradientUnits="userSpaceOnUse" gradientTransform="translate(84.5783 36.9517) rotate(-90) scale(0.5 33.3944)">
<stop stop-color="white"/>
<stop stop-color="#5200FF" stop-opacity="0"/>
<stop offset="0.135417" stop-color="#270000" stop-opacity="0.0846125"/>
<stop offset="0.541667" stop-opacity="0.1"/>
<stop offset="0.791667" stop-color="#FF0000" stop-opacity="0"/>
<stop offset="0.9999" stop-color="#260000"/>
<stop offset="1" stop-color="#1400FF" stop-opacity="0"/>
</radialGradient>
<radialGradient id="paint19_angular_104_1632" cx="0" cy="0" r="1" gradientUnits="userSpaceOnUse" gradientTransform="translate(151.367 311.349) rotate(90) scale(0.5 33.3944)">
<stop stop-color="white"/>
<stop stop-color="#5200FF" stop-opacity="0"/>
<stop offset="0.135417" stop-color="#270000" stop-opacity="0.0846125"/>
<stop offset="0.541667" stop-opacity="0.1"/>
<stop offset="0.791667" stop-color="#FF0000" stop-opacity="0"/>
<stop offset="0.9999" stop-color="#260000"/>
<stop offset="1" stop-color="#1400FF" stop-opacity="0"/>
</radialGradient>
<clipPath id="clip0_104_1632">
<rect width="235.945" height="387" fill="white"/>
</clipPath>
</defs>
</svg>
