<svg width="283" height="470" viewBox="0 0 283 470" fill="none" xmlns="http://www.w3.org/2000/svg">
<g clip-path="url(#clip0_104_1755)">
<rect width="283" height="470" fill="black"/>
<path d="M83.1839 333.681C73.8966 342.969 73.8966 358.026 83.1839 367.314L234.529 518.658C243.816 527.946 258.873 527.946 268.161 518.658C277.448 509.371 277.448 494.313 268.161 485.026L133.632 350.498L268.161 215.969C277.448 206.682 277.448 191.624 268.161 182.337C258.873 173.05 243.816 173.05 234.529 182.337L83.1839 333.681ZM141.618 326.716H100V374.279H141.618V326.716Z" fill="#5013FF"/>
<path d="M200.051 136.816C209.339 127.529 209.339 112.471 200.051 103.184L48.7067 -48.1607C39.4195 -57.448 24.3618 -57.448 15.0746 -48.1607C5.78732 -38.8734 5.78732 -23.8158 15.0746 -14.5286L149.603 120L15.0746 254.529C5.7873 263.816 5.78729 278.873 15.0746 288.161C24.3618 297.448 39.4194 297.448 48.7067 288.161L200.051 136.816ZM141.618 143.782L183.235 143.782L183.235 96.2185L141.618 96.2185L141.618 143.782Z" fill="#5013FF"/>
<path d="M83.1839 308.071C73.8966 317.358 73.8966 332.416 83.1839 341.703L234.529 493.047C243.816 502.335 258.873 502.335 268.161 493.047C277.448 483.76 277.448 468.703 268.161 459.415L133.632 324.887L268.161 190.358C277.448 181.071 277.448 166.013 268.161 156.726C258.873 147.439 243.816 147.439 234.529 156.726L83.1839 308.071ZM141.618 301.105H100V348.668H141.618V301.105Z" fill="#5013FF"/>
<path d="M200.051 162.427C209.339 153.14 209.339 138.082 200.051 128.795L48.7067 -22.5499C39.4195 -31.8371 24.3618 -31.8371 15.0746 -22.5499C5.78732 -13.2626 5.78732 1.79502 15.0746 11.0823L149.603 145.611L15.0746 280.139C5.7873 289.427 5.78729 304.484 15.0746 313.772C24.3618 323.059 39.4194 323.059 48.7067 313.772L200.051 162.427ZM141.618 169.392L183.235 169.392L183.235 121.829L141.618 121.829L141.618 169.392Z" fill="#5013FF"/>
<path d="M83.1839 282.46C73.8966 291.748 73.8966 306.805 83.1839 316.092L234.529 467.437C243.816 476.724 258.873 476.724 268.161 467.437C277.448 458.15 277.448 443.092 268.161 433.805L133.632 299.276L268.161 164.748C277.448 155.461 277.448 140.403 268.161 131.116C258.873 121.828 243.816 121.828 234.529 131.116L83.1839 282.46ZM141.618 275.495H100V323.058H141.618V275.495Z" fill="#5013FF"/>
<path d="M200.051 188.038C209.339 178.75 209.339 163.693 200.051 154.406L48.7067 3.06098C39.4195 -6.22628 24.3618 -6.22628 15.0746 3.06098C5.78732 12.3482 5.78732 27.4059 15.0746 36.6931L149.603 171.222L15.0746 305.75C5.7873 315.037 5.78729 330.095 15.0746 339.382C24.3618 348.67 39.4194 348.67 48.7067 339.382L200.051 188.038ZM141.618 195.003L183.235 195.003L183.235 147.44L141.618 147.44L141.618 195.003Z" fill="#5013FF"/>
<path d="M83.1839 256.849C73.8966 266.136 73.8966 281.194 83.1839 290.481L234.529 441.826C243.816 451.113 258.873 451.113 268.161 441.826C277.448 432.538 277.448 417.481 268.161 408.194L133.632 273.665L268.161 139.136C277.448 129.849 277.448 114.792 268.161 105.504C258.873 96.2171 243.816 96.2171 234.529 105.504L83.1839 256.849ZM141.618 249.884H100V297.447H141.618V249.884Z" fill="#5013FF"/>
<path d="M200.051 213.649C209.339 204.361 209.339 189.304 200.051 180.016L48.7067 28.6718C39.4195 19.3846 24.3618 19.3846 15.0746 28.6718C5.78732 37.9591 5.78732 53.0167 15.0746 62.304L149.603 196.833L15.0746 331.361C5.7873 340.648 5.78729 355.706 15.0746 364.993C24.3618 374.28 39.4194 374.28 48.7067 364.993L200.051 213.649ZM141.618 220.614L183.235 220.614L183.235 173.051L141.618 173.051L141.618 220.614Z" fill="#5013FF"/>
<path d="M83.1839 231.239C73.8966 240.526 73.8966 255.583 83.1839 264.871L234.529 416.215C243.816 425.503 258.873 425.503 268.161 416.215C277.448 406.928 277.448 391.87 268.161 382.583L133.632 248.055L268.161 113.526C277.448 104.239 277.448 89.1813 268.161 79.894C258.873 70.6067 243.816 70.6067 234.529 79.894L83.1839 231.239ZM141.618 224.273H100V271.836H141.618V224.273Z" fill="#5013FF"/>
<path d="M200.051 239.259C209.339 229.972 209.339 214.915 200.051 205.627L48.7067 54.2827C39.4195 44.9954 24.3618 44.9954 15.0746 54.2827C5.78732 63.5699 5.78732 78.6275 15.0746 87.9148L149.603 222.443L15.0746 356.972C5.7873 366.259 5.78729 381.317 15.0746 390.604C24.3618 399.891 39.4194 399.891 48.7067 390.604L200.051 239.259ZM141.618 246.225L183.235 246.225L183.235 198.662L141.618 198.662L141.618 246.225Z" fill="#5013FF"/>
<path d="M83.1839 205.627C73.8966 214.915 73.8966 229.972 83.1839 239.259L234.529 390.604C243.816 399.891 258.873 399.891 268.161 390.604C277.448 381.317 277.448 366.259 268.161 356.972L133.632 222.443L268.161 87.9148C277.448 78.6275 277.448 63.5699 268.161 54.2827C258.873 44.9954 243.816 44.9954 234.529 54.2827L83.1839 205.627ZM141.618 198.662H100V246.225H141.618V198.662Z" fill="#5013FF"/>
<path d="M200.051 264.871C209.339 255.584 209.339 240.526 200.051 231.239L48.7067 79.894C39.4195 70.6067 24.3618 70.6067 15.0746 79.894C5.78732 89.1812 5.78732 104.239 15.0746 113.526L149.603 248.055L15.0746 382.583C5.7873 391.87 5.78729 406.928 15.0746 416.215C24.3618 425.503 39.4194 425.503 48.7067 416.215L200.051 264.871ZM141.618 271.836L183.235 271.836L183.235 224.273L141.618 224.273L141.618 271.836Z" fill="#5013FF"/>
<path d="M83.1839 180.016C73.8966 189.304 73.8966 204.361 83.1839 213.649L234.529 364.993C243.816 374.28 258.873 374.28 268.161 364.993C277.448 355.706 277.448 340.648 268.161 331.361L133.632 196.833L268.161 62.304C277.448 53.0167 277.448 37.9591 268.161 28.6718C258.873 19.3846 243.816 19.3846 234.529 28.6718L83.1839 180.016ZM141.618 173.051H100V220.614H141.618V173.051Z" fill="#5013FF"/>
<path d="M200.051 290.481C209.339 281.194 209.339 266.136 200.051 256.849L48.7067 105.504C39.4195 96.2171 24.3618 96.2171 15.0746 105.504C5.78732 114.792 5.78732 129.849 15.0746 139.136L149.603 273.665L15.0746 408.194C5.7873 417.481 5.78729 432.538 15.0746 441.826C24.3618 451.113 39.4194 451.113 48.7067 441.826L200.051 290.481ZM141.618 297.447L183.235 297.447L183.235 249.884L141.618 249.884L141.618 297.447Z" fill="#5013FF"/>
<path d="M83.1839 154.406C73.8966 163.693 73.8966 178.75 83.1839 188.038L234.529 339.382C243.816 348.67 258.873 348.67 268.161 339.382C277.448 330.095 277.448 315.037 268.161 305.75L133.632 171.222L268.161 36.6931C277.448 27.4059 277.448 12.3483 268.161 3.06099C258.873 -6.22627 243.816 -6.22627 234.529 3.06099L83.1839 154.406ZM141.618 147.44H100V195.003H141.618V147.44Z" fill="#5013FF"/>
<path d="M200.051 316.092C209.339 306.805 209.339 291.748 200.051 282.46L48.7067 131.116C39.4195 121.828 24.3618 121.828 15.0746 131.116C5.78732 140.403 5.78732 155.461 15.0746 164.748L149.603 299.276L15.0746 433.805C5.7873 443.092 5.78729 458.15 15.0746 467.437C24.3618 476.724 39.4194 476.724 48.7067 467.437L200.051 316.092ZM141.618 323.058L183.235 323.058L183.235 275.495L141.618 275.495L141.618 323.058Z" fill="#5013FF"/>
<path d="M83.1839 128.795C73.8966 138.082 73.8966 153.14 83.1839 162.427L234.529 313.772C243.816 323.059 258.873 323.059 268.161 313.772C277.448 304.484 277.448 289.427 268.161 280.139L133.632 145.611L268.161 11.0823C277.448 1.79503 277.448 -13.2626 268.161 -22.5499C258.873 -31.8371 243.816 -31.8371 234.529 -22.5499L83.1839 128.795ZM141.618 121.829H100V169.392H141.618V121.829Z" fill="#5013FF"/>
<path d="M200.051 341.703C209.339 332.416 209.339 317.358 200.051 308.071L48.7067 156.726C39.4195 147.439 24.3618 147.439 15.0746 156.726C5.78732 166.013 5.78732 181.071 15.0746 190.358L149.603 324.887L15.0746 459.415C5.7873 468.703 5.78729 483.76 15.0746 493.047C24.3618 502.335 39.4194 502.335 48.7067 493.047L200.051 341.703ZM141.618 348.668L183.235 348.668L183.235 301.105L141.618 301.105L141.618 348.668Z" fill="#5013FF"/>
<path d="M83.1839 103.184C73.8966 112.471 73.8966 127.529 83.1839 136.816L234.529 288.161C243.816 297.448 258.873 297.448 268.161 288.161C277.448 278.873 277.448 263.816 268.161 254.529L133.632 120L268.161 -14.5285C277.448 -23.8158 277.448 -38.8734 268.161 -48.1607C258.873 -57.448 243.816 -57.448 234.529 -48.1607L83.1839 103.184ZM141.618 96.2185H100V143.782H141.618V96.2185Z" fill="#5013FF"/>
<path d="M200.051 367.314C209.339 358.026 209.339 342.969 200.051 333.681L48.7067 182.337C39.4195 173.05 24.3618 173.05 15.0746 182.337C5.78732 191.624 5.78732 206.682 15.0746 215.969L149.603 350.498L15.0746 485.026C5.7873 494.313 5.78729 509.371 15.0746 518.658C24.3618 527.946 39.4194 527.946 48.7067 518.658L200.051 367.314ZM141.618 374.279L183.235 374.279L183.235 326.716L141.618 326.716L141.618 374.279Z" fill="#5013FF"/>
<path d="M143.793 135.63V147.662H140.664V135.63H143.793ZM145.717 179.63V191.662H142.975L141.348 186.192V191.662H138.732V179.63H141.348L143.101 185.048V179.63H145.717ZM145.546 226.272H142.641V225.38C142.641 224.964 142.604 224.699 142.529 224.585C142.455 224.471 142.331 224.414 142.158 224.414C141.969 224.414 141.826 224.491 141.727 224.644C141.632 224.798 141.585 225.031 141.585 225.343C141.585 225.744 141.64 226.046 141.749 226.249C141.853 226.453 142.148 226.698 142.633 226.985C144.025 227.813 144.902 228.491 145.264 229.021C145.626 229.552 145.807 230.406 145.807 231.585C145.807 232.443 145.705 233.074 145.502 233.48C145.304 233.887 144.917 234.229 144.343 234.506C143.768 234.779 143.099 234.915 142.336 234.915C141.499 234.915 140.783 234.756 140.188 234.439C139.599 234.122 139.212 233.718 139.029 233.228C138.846 232.737 138.754 232.041 138.754 231.139V230.352H141.66V231.816C141.66 232.267 141.699 232.556 141.779 232.685C141.863 232.814 142.009 232.878 142.217 232.878C142.425 232.878 142.579 232.797 142.678 232.633C142.782 232.47 142.834 232.227 142.834 231.905C142.834 231.196 142.737 230.733 142.544 230.515C142.346 230.297 141.858 229.933 141.08 229.423C140.302 228.907 139.787 228.533 139.534 228.301C139.282 228.068 139.071 227.746 138.903 227.334C138.739 226.923 138.657 226.398 138.657 225.759C138.657 224.837 138.774 224.164 139.007 223.737C139.244 223.311 139.626 222.979 140.151 222.742C140.676 222.499 141.31 222.377 142.054 222.377C142.866 222.377 143.557 222.509 144.127 222.771C144.702 223.034 145.081 223.366 145.264 223.767C145.452 224.164 145.546 224.84 145.546 225.796V226.272ZM144.395 266.63L146.186 278.662H142.983L142.826 276.499H141.704L141.518 278.662H138.278L139.869 266.63H144.395ZM142.737 274.367C142.579 273.004 142.42 271.322 142.262 269.32C141.945 271.619 141.746 273.301 141.667 274.367H142.737ZM145.717 310.63V322.662H142.975L141.348 317.192V322.662H138.732V310.63H141.348L143.101 316.048V310.63H145.717ZM139.69 354.63H144.907V357.038H142.819V359.32H144.774V361.609H142.819V364.254H145.115V366.662H139.69V354.63Z" fill="white"/>
<g filter="url(#filter0_d_104_1755)">
<path d="M96.4868 347.102C94.6115 348.977 94.6115 352.018 96.4868 353.893L127.047 384.453C128.922 386.328 131.963 386.328 133.838 384.453C135.713 382.578 135.713 379.537 133.838 377.662L106.673 350.498L133.838 323.333C135.713 321.458 135.713 318.417 133.838 316.542C131.963 314.667 128.922 314.667 127.047 316.542L96.4868 347.102ZM141.5 345.696H99.8824V355.3H141.5V345.696Z" fill="url(#paint0_linear_104_1755)"/>
<path d="M186.513 123.396C188.389 121.52 188.389 118.48 186.513 116.604L155.953 86.0445C154.078 84.1692 151.037 84.1692 149.162 86.0445C147.287 87.9198 147.287 90.9603 149.162 92.8356L176.327 120L149.162 147.164C147.287 149.04 147.287 152.08 149.162 153.956C151.037 155.831 154.078 155.831 155.953 153.956L186.513 123.396ZM141.5 124.802L183.118 124.802L183.118 115.198L141.5 115.198L141.5 124.802Z" fill="url(#paint1_linear_104_1755)"/>
<path d="M96.4868 321.491C94.6115 323.366 94.6115 326.407 96.4868 328.282L127.047 358.842C128.922 360.718 131.963 360.718 133.838 358.842C135.713 356.967 135.713 353.926 133.838 352.051L106.673 324.887L133.838 297.722C135.713 295.847 135.713 292.807 133.838 290.931C131.963 289.056 128.922 289.056 127.047 290.931L96.4868 321.491ZM141.5 320.085H99.8824V329.689H141.5V320.085Z" fill="url(#paint2_linear_104_1755)"/>
<path d="M186.513 149.006C188.389 147.131 188.389 144.091 186.513 142.215L155.953 111.655C154.078 109.78 151.037 109.78 149.162 111.655C147.287 113.531 147.287 116.571 149.162 118.446L176.327 145.611L149.162 172.775C147.287 174.651 147.287 177.691 149.162 179.566C151.037 181.442 154.078 181.442 155.953 179.566L186.513 149.006ZM141.5 150.413L183.118 150.413L183.118 140.809L141.5 140.809L141.5 150.413Z" fill="url(#paint3_linear_104_1755)"/>
<path d="M96.4868 295.881C94.6115 297.756 94.6115 300.797 96.4868 302.672L127.047 333.232C128.922 335.107 131.963 335.107 133.838 333.232C135.713 331.357 135.713 328.316 133.838 326.441L106.673 299.276L133.838 272.112C135.713 270.237 135.713 267.196 133.838 265.321C131.963 263.446 128.922 263.446 127.047 265.321L96.4868 295.881ZM141.5 294.474H99.8824V304.078H141.5V294.474Z" fill="url(#paint4_linear_104_1755)"/>
<path d="M186.513 174.617C188.389 172.742 188.389 169.701 186.513 167.826L155.953 137.266C154.078 135.391 151.037 135.391 149.162 137.266C147.287 139.141 147.287 142.182 149.162 144.057L176.327 171.222L149.162 198.386C147.287 200.261 147.287 203.302 149.162 205.177C151.037 207.053 154.078 207.053 155.953 205.177L186.513 174.617ZM141.5 176.024L183.118 176.024L183.118 166.42L141.5 166.42L141.5 176.024Z" fill="url(#paint5_linear_104_1755)"/>
<path d="M96.4868 270.269C94.6115 272.145 94.6115 275.185 96.4868 277.061L127.047 307.621C128.922 309.496 131.963 309.496 133.838 307.621C135.713 305.745 135.713 302.705 133.838 300.829L106.673 273.665L133.838 246.501C135.713 244.625 135.713 241.585 133.838 239.71C131.963 237.834 128.922 237.834 127.047 239.71L96.4868 270.269ZM141.5 268.863H99.8824V278.467H141.5V268.863Z" fill="url(#paint6_linear_104_1755)"/>
<path d="M186.513 200.228C188.389 198.353 188.389 195.312 186.513 193.437L155.953 162.877C154.078 161.002 151.037 161.002 149.162 162.877C147.287 164.752 147.287 167.793 149.162 169.668L176.327 196.833L149.162 223.997C147.287 225.872 147.287 228.913 149.162 230.788C151.037 232.663 154.078 232.663 155.953 230.788L186.513 200.228ZM141.5 201.635L183.118 201.635L183.118 192.03L141.5 192.03L141.5 201.635Z" fill="url(#paint7_linear_104_1755)"/>
<path d="M96.4868 244.659C94.6115 246.534 94.6115 249.575 96.4868 251.45L127.047 282.01C128.922 283.886 131.963 283.886 133.838 282.01C135.713 280.135 135.713 277.094 133.838 275.219L106.673 248.055L133.838 220.89C135.713 219.015 135.713 215.974 133.838 214.099C131.963 212.224 128.922 212.224 127.047 214.099L96.4868 244.659ZM141.5 243.253H99.8824V252.857H141.5V243.253Z" fill="url(#paint8_linear_104_1755)"/>
<path d="M186.513 225.839C188.389 223.964 188.389 220.923 186.513 219.048L155.953 188.488C154.078 186.613 151.037 186.613 149.162 188.488C147.287 190.363 147.287 193.404 149.162 195.279L176.327 222.443L149.162 249.608C147.287 251.483 147.287 254.524 149.162 256.399C151.037 258.274 154.078 258.274 155.953 256.399L186.513 225.839ZM141.5 227.245L183.118 227.245L183.118 217.641L141.5 217.641L141.5 227.245Z" fill="url(#paint9_linear_104_1755)"/>
<path d="M96.4868 219.048C94.6115 220.923 94.6115 223.964 96.4868 225.839L127.047 256.399C128.922 258.274 131.963 258.274 133.838 256.399C135.713 254.524 135.713 251.483 133.838 249.608L106.673 222.443L133.838 195.279C135.713 193.404 135.713 190.363 133.838 188.488C131.963 186.613 128.922 186.613 127.047 188.488L96.4868 219.048ZM141.5 217.641H99.8824V227.245H141.5V217.641Z" fill="url(#paint10_linear_104_1755)"/>
<path d="M186.513 251.45C188.389 249.575 188.389 246.534 186.513 244.659L155.953 214.099C154.078 212.224 151.037 212.224 149.162 214.099C147.287 215.974 147.287 219.015 149.162 220.89L176.327 248.055L149.162 275.219C147.287 277.094 147.287 280.135 149.162 282.01C151.037 283.886 154.078 283.886 155.953 282.01L186.513 251.45ZM141.5 252.857L183.118 252.857L183.118 243.253L141.5 243.253L141.5 252.857Z" fill="url(#paint11_linear_104_1755)"/>
<path d="M96.4868 193.437C94.6115 195.312 94.6115 198.353 96.4868 200.228L127.047 230.788C128.922 232.663 131.963 232.663 133.838 230.788C135.713 228.913 135.713 225.872 133.838 223.997L106.673 196.833L133.838 169.668C135.713 167.793 135.713 164.752 133.838 162.877C131.963 161.002 128.922 161.002 127.047 162.877L96.4868 193.437ZM141.5 192.03H99.8824V201.635H141.5V192.03Z" fill="url(#paint12_linear_104_1755)"/>
<path d="M186.513 277.061C188.389 275.185 188.389 272.145 186.513 270.269L155.953 239.71C154.078 237.834 151.037 237.834 149.162 239.71C147.287 241.585 147.287 244.625 149.162 246.501L176.327 273.665L149.162 300.829C147.287 302.705 147.287 305.745 149.162 307.621C151.037 309.496 154.078 309.496 155.953 307.621L186.513 277.061ZM141.5 278.467L183.118 278.467L183.118 268.863L141.5 268.863L141.5 278.467Z" fill="url(#paint13_linear_104_1755)"/>
<path d="M96.4868 167.826C94.6115 169.701 94.6115 172.742 96.4868 174.617L127.047 205.177C128.922 207.053 131.963 207.053 133.838 205.177C135.713 203.302 135.713 200.261 133.838 198.386L106.673 171.222L133.838 144.057C135.713 142.182 135.713 139.141 133.838 137.266C131.963 135.391 128.922 135.391 127.047 137.266L96.4868 167.826ZM141.5 166.42H99.8824V176.024H141.5V166.42Z" fill="url(#paint14_linear_104_1755)"/>
<path d="M186.513 302.672C188.389 300.797 188.389 297.756 186.513 295.881L155.953 265.321C154.078 263.446 151.037 263.446 149.162 265.321C147.287 267.196 147.287 270.237 149.162 272.112L176.327 299.276L149.162 326.441C147.287 328.316 147.287 331.357 149.162 333.232C151.037 335.107 154.078 335.107 155.953 333.232L186.513 302.672ZM141.5 304.078L183.118 304.078L183.118 294.474L141.5 294.474L141.5 304.078Z" fill="url(#paint15_linear_104_1755)"/>
<path d="M96.4868 142.215C94.6115 144.091 94.6115 147.131 96.4868 149.006L127.047 179.566C128.922 181.442 131.963 181.442 133.838 179.566C135.713 177.691 135.713 174.651 133.838 172.775L106.673 145.611L133.838 118.446C135.713 116.571 135.713 113.531 133.838 111.655C131.963 109.78 128.922 109.78 127.047 111.655L96.4868 142.215ZM141.5 140.809H99.8824V150.413H141.5V140.809Z" fill="url(#paint16_linear_104_1755)"/>
<path d="M186.513 328.282C188.389 326.407 188.389 323.366 186.513 321.491L155.953 290.931C154.078 289.056 151.037 289.056 149.162 290.931C147.287 292.807 147.287 295.847 149.162 297.722L176.327 324.887L149.162 352.051C147.287 353.926 147.287 356.967 149.162 358.842C151.037 360.718 154.078 360.718 155.953 358.842L186.513 328.282ZM141.5 329.689L183.118 329.689L183.118 320.085L141.5 320.085L141.5 329.689Z" fill="url(#paint17_linear_104_1755)"/>
<path d="M96.4868 116.604C94.6115 118.48 94.6115 121.52 96.4868 123.396L127.047 153.956C128.922 155.831 131.963 155.831 133.838 153.956C135.713 152.08 135.713 149.04 133.838 147.164L106.673 120L133.838 92.8356C135.713 90.9603 135.713 87.9198 133.838 86.0445C131.963 84.1692 128.922 84.1692 127.047 86.0445L96.4868 116.604ZM141.5 115.198H99.8824V124.802H141.5V115.198Z" fill="url(#paint18_linear_104_1755)"/>
<path d="M186.513 353.893C188.389 352.018 188.389 348.977 186.513 347.102L155.953 316.542C154.078 314.667 151.037 314.667 149.162 316.542C147.287 318.417 147.287 321.458 149.162 323.333L176.327 350.498L149.162 377.662C147.287 379.537 147.287 382.578 149.162 384.453C151.037 386.328 154.078 386.328 155.953 384.453L186.513 353.893ZM141.5 355.3L183.118 355.3L183.118 345.696L141.5 345.696L141.5 355.3Z" fill="url(#paint19_linear_104_1755)"/>
</g>
<path d="M255.472 443.463C254.728 443.711 253.55 444.702 254.542 446.934C255.782 449.723 257.579 455.239 253.488 456.417C251.989 456.848 253.674 450.033 256.959 448.855C259.562 447.922 264.335 447.863 266.008 447.987" stroke="#F5F5F5" stroke-width="0.761853" stroke-linecap="round"/>
<path d="M253.798 447.12C252.476 447.574 249.807 448.731 249.708 449.723C249.609 450.714 253.592 450.136 255.596 449.723" stroke="#F5F5F5" stroke-width="0.761853" stroke-linecap="round"/>
<path d="M252.683 439C251.856 441.293 250.104 447.466 249.708 453.813" stroke="#F5F5F5" stroke-width="0.761853" stroke-linecap="round"/>
</g>
<defs>
<filter id="filter0_d_104_1755" x="89.3728" y="78.9304" width="104.254" height="312.637" filterUnits="userSpaceOnUse" color-interpolation-filters="sRGB">
<feFlood flood-opacity="0" result="BackgroundImageFix"/>
<feColorMatrix in="SourceAlpha" type="matrix" values="0 0 0 0 0 0 0 0 0 0 0 0 0 0 0 0 0 0 127 0" result="hardAlpha"/>
<feOffset/>
<feGaussianBlur stdDeviation="2.85378"/>
<feComposite in2="hardAlpha" operator="out"/>
<feColorMatrix type="matrix" values="0 0 0 0 0.550833 0 0 0 0 0.550833 0 0 0 0 0.550833 0 0 0 0.25 0"/>
<feBlend mode="normal" in2="BackgroundImageFix" result="effect1_dropShadow_104_1755"/>
<feBlend mode="normal" in="SourceGraphic" in2="effect1_dropShadow_104_1755" result="shape"/>
</filter>
<linearGradient id="paint0_linear_104_1755" x1="120.691" y1="350.498" x2="120.691" y2="349.498" gradientUnits="userSpaceOnUse">
<stop stop-color="#FF5C00"/>
<stop offset="1" stop-color="#FF0000" stop-opacity="0"/>
</linearGradient>
<linearGradient id="paint1_linear_104_1755" x1="162.309" y1="120" x2="162.309" y2="121" gradientUnits="userSpaceOnUse">
<stop stop-color="#FF5C00"/>
<stop offset="1" stop-color="#FF0000" stop-opacity="0"/>
</linearGradient>
<linearGradient id="paint2_linear_104_1755" x1="120.691" y1="324.887" x2="120.691" y2="323.887" gradientUnits="userSpaceOnUse">
<stop stop-color="#FF5C00"/>
<stop offset="1" stop-color="#FF0000" stop-opacity="0"/>
</linearGradient>
<linearGradient id="paint3_linear_104_1755" x1="162.309" y1="145.611" x2="162.309" y2="146.611" gradientUnits="userSpaceOnUse">
<stop stop-color="#FF5C00"/>
<stop offset="1" stop-color="#FF0000" stop-opacity="0"/>
</linearGradient>
<linearGradient id="paint4_linear_104_1755" x1="120.691" y1="299.276" x2="120.691" y2="298.276" gradientUnits="userSpaceOnUse">
<stop stop-color="#FF5C00"/>
<stop offset="1" stop-color="#FF0000" stop-opacity="0"/>
</linearGradient>
<linearGradient id="paint5_linear_104_1755" x1="162.309" y1="171.222" x2="162.309" y2="172.222" gradientUnits="userSpaceOnUse">
<stop stop-color="#FF5C00"/>
<stop offset="1" stop-color="#FF0000" stop-opacity="0"/>
</linearGradient>
<linearGradient id="paint6_linear_104_1755" x1="120.691" y1="273.665" x2="120.691" y2="272.665" gradientUnits="userSpaceOnUse">
<stop stop-color="#FF5C00"/>
<stop offset="1" stop-color="#FF0000" stop-opacity="0"/>
</linearGradient>
<linearGradient id="paint7_linear_104_1755" x1="162.309" y1="196.833" x2="162.309" y2="197.833" gradientUnits="userSpaceOnUse">
<stop stop-color="#FF5C00"/>
<stop offset="1" stop-color="#FF0000" stop-opacity="0"/>
</linearGradient>
<linearGradient id="paint8_linear_104_1755" x1="120.691" y1="248.055" x2="120.691" y2="247.055" gradientUnits="userSpaceOnUse">
<stop stop-color="#FF5C00"/>
<stop offset="1" stop-color="#FF0000" stop-opacity="0"/>
</linearGradient>
<linearGradient id="paint9_linear_104_1755" x1="162.309" y1="222.443" x2="162.309" y2="223.443" gradientUnits="userSpaceOnUse">
<stop stop-color="#FF5C00"/>
<stop offset="1" stop-color="#FF0000" stop-opacity="0"/>
</linearGradient>
<linearGradient id="paint10_linear_104_1755" x1="120.691" y1="222.443" x2="120.691" y2="221.443" gradientUnits="userSpaceOnUse">
<stop stop-color="#FF5C00"/>
<stop offset="1" stop-color="#FF0000" stop-opacity="0"/>
</linearGradient>
<linearGradient id="paint11_linear_104_1755" x1="162.309" y1="248.055" x2="162.309" y2="249.055" gradientUnits="userSpaceOnUse">
<stop stop-color="#FF5C00"/>
<stop offset="1" stop-color="#FF0000" stop-opacity="0"/>
</linearGradient>
<linearGradient id="paint12_linear_104_1755" x1="120.691" y1="196.833" x2="120.691" y2="195.833" gradientUnits="userSpaceOnUse">
<stop stop-color="#FF5C00"/>
<stop offset="1" stop-color="#FF0000" stop-opacity="0"/>
</linearGradient>
<linearGradient id="paint13_linear_104_1755" x1="162.309" y1="273.665" x2="162.309" y2="274.665" gradientUnits="userSpaceOnUse">
<stop stop-color="#FF5C00"/>
<stop offset="1" stop-color="#FF0000" stop-opacity="0"/>
</linearGradient>
<linearGradient id="paint14_linear_104_1755" x1="120.691" y1="171.222" x2="120.691" y2="170.222" gradientUnits="userSpaceOnUse">
<stop stop-color="#FF5C00"/>
<stop offset="1" stop-color="#FF0000" stop-opacity="0"/>
</linearGradient>
<linearGradient id="paint15_linear_104_1755" x1="162.309" y1="299.276" x2="162.309" y2="300.276" gradientUnits="userSpaceOnUse">
<stop stop-color="#FF5C00"/>
<stop offset="1" stop-color="#FF0000" stop-opacity="0"/>
</linearGradient>
<linearGradient id="paint16_linear_104_1755" x1="120.691" y1="145.611" x2="120.691" y2="144.611" gradientUnits="userSpaceOnUse">
<stop stop-color="#FF5C00"/>
<stop offset="1" stop-color="#FF0000" stop-opacity="0"/>
</linearGradient>
<linearGradient id="paint17_linear_104_1755" x1="162.309" y1="324.887" x2="162.309" y2="325.887" gradientUnits="userSpaceOnUse">
<stop stop-color="#FF5C00"/>
<stop offset="1" stop-color="#FF0000" stop-opacity="0"/>
</linearGradient>
<linearGradient id="paint18_linear_104_1755" x1="120.691" y1="120" x2="120.691" y2="119" gradientUnits="userSpaceOnUse">
<stop stop-color="#FF5C00"/>
<stop offset="1" stop-color="#FF0000" stop-opacity="0"/>
</linearGradient>
<linearGradient id="paint19_linear_104_1755" x1="162.309" y1="350.498" x2="162.309" y2="351.498" gradientUnits="userSpaceOnUse">
<stop stop-color="#FF5C00"/>
<stop offset="1" stop-color="#FF0000" stop-opacity="0"/>
</linearGradient>
<clipPath id="clip0_104_1755">
<rect width="283" height="470" fill="white"/>
</clipPath>
</defs>
</svg>
