<svg width="236" height="387" viewBox="0 0 236 387" fill="none" xmlns="http://www.w3.org/2000/svg">
<g clip-path="url(#clip0_104_2044)">
<rect width="236" height="387" fill="black"/>
<path d="M68.9767 276.194C61.2318 283.938 61.2318 296.495 68.9767 304.24L195.186 430.45C202.931 438.195 215.488 438.195 223.233 430.45C230.978 422.705 230.978 410.148 223.233 402.403L111.047 290.217L223.233 178.03C230.978 170.286 230.978 157.729 223.233 149.984C215.488 142.239 202.931 142.239 195.186 149.984L68.9767 276.194ZM117.706 270.385H83V310.049H117.706V270.385Z" fill="url(#paint0_linear_104_2044)"/>
<path d="M166.435 112.023C174.18 104.278 174.18 91.7213 166.435 83.9765L40.2254 -42.2332C32.4806 -49.9781 19.9237 -49.9781 12.1788 -42.2332C4.43396 -34.4884 4.43396 -21.9315 12.1788 -14.1866L124.365 97.9998L12.1788 210.186C4.43394 217.931 4.43394 230.488 12.1788 238.233C19.9236 245.978 32.4805 245.978 40.2254 238.233L166.435 112.023ZM117.706 117.832L152.412 117.832L152.412 78.1678L117.706 78.1678L117.706 117.832Z" fill="url(#paint1_linear_104_2044)"/>
<path d="M68.9767 254.836C61.2318 262.581 61.2318 275.138 68.9767 282.883L195.186 409.092C202.931 416.837 215.488 416.837 223.233 409.092C230.978 401.347 230.978 388.791 223.233 381.046L111.047 268.859L223.233 156.673C230.978 148.928 230.978 136.371 223.233 128.626C215.488 120.882 202.931 120.882 195.186 128.626L68.9767 254.836ZM117.706 249.027H83V288.691H117.706V249.027Z" fill="url(#paint2_linear_104_2044)"/>
<path d="M166.435 133.38C174.18 125.636 174.18 113.079 166.435 105.334L40.2254 -20.8758C32.4806 -28.6206 19.9237 -28.6206 12.1788 -20.8758C4.43396 -13.1309 4.43396 -0.574046 12.1788 7.17081L124.365 119.357L12.1788 231.544C4.43394 239.288 4.43394 251.845 12.1788 259.59C19.9236 267.335 32.4805 267.335 40.2254 259.59L166.435 133.38ZM117.706 139.189L152.412 139.189L152.412 99.5252L117.706 99.5252L117.706 139.189Z" fill="url(#paint3_linear_104_2044)"/>
<path d="M68.9767 233.479C61.2318 241.224 61.2318 253.78 68.9767 261.525L195.186 387.735C202.931 395.48 215.488 395.48 223.233 387.735C230.978 379.99 230.978 367.433 223.233 359.688L111.047 247.502L223.233 135.316C230.978 127.571 230.978 115.014 223.233 107.269C215.488 99.5242 202.931 99.5242 195.186 107.269L68.9767 233.479ZM117.706 227.67H83V267.334H117.706V227.67Z" fill="url(#paint4_linear_104_2044)"/>
<path d="M166.435 154.738C174.18 146.993 174.18 134.436 166.435 126.692L40.2254 0.481881C32.4806 -7.26296 19.9237 -7.26296 12.1788 0.481879C4.43396 8.22674 4.43396 20.7836 12.1788 28.5285L124.365 140.715L12.1788 252.901C4.43394 260.646 4.43394 273.203 12.1788 280.948C19.9236 288.693 32.4805 288.693 40.2254 280.948L166.435 154.738ZM117.706 160.547L152.412 160.547L152.412 120.883L117.706 120.883L117.706 160.547Z" fill="url(#paint5_linear_104_2044)"/>
<path d="M68.9767 212.121C61.2318 219.866 61.2318 232.423 68.9767 240.168L195.186 366.377C202.931 374.122 215.488 374.122 223.233 366.377C230.978 358.633 230.978 346.076 223.233 338.331L111.047 226.145L223.233 113.958C230.978 106.213 230.978 93.6564 223.233 85.9116C215.488 78.1667 202.931 78.1667 195.186 85.9116L68.9767 212.121ZM117.706 206.313H83V245.976H117.706V206.313Z" fill="url(#paint6_linear_104_2044)"/>
<path d="M166.435 176.096C174.18 168.351 174.18 155.794 166.435 148.049L40.2254 21.8393C32.4806 14.0945 19.9237 14.0945 12.1788 21.8393C4.43396 29.5842 4.43396 42.141 12.1788 49.8859L124.365 162.072L12.1788 274.259C4.43394 282.003 4.43394 294.56 12.1788 302.305C19.9236 310.05 32.4805 310.05 40.2254 302.305L166.435 176.096ZM117.706 181.904L152.412 181.904L152.412 142.24L117.706 142.24L117.706 181.904Z" fill="url(#paint7_linear_104_2044)"/>
<path d="M68.9767 190.764C61.2318 198.509 61.2318 211.066 68.9767 218.81L195.186 345.02C202.931 352.765 215.488 352.765 223.233 345.02C230.978 337.275 230.978 324.718 223.233 316.973L111.047 204.787L223.233 92.6007C230.978 84.8559 230.978 72.299 223.233 64.5542C215.488 56.8093 202.931 56.8093 195.186 64.5542L68.9767 190.764ZM117.706 184.955H83V224.619H117.706V184.955Z" fill="url(#paint8_linear_104_2044)"/>
<path d="M166.435 197.453C174.18 189.708 174.18 177.151 166.435 169.406L40.2254 43.1967C32.4806 35.4519 19.9237 35.4519 12.1788 43.1967C4.43396 50.9416 4.43396 63.4985 12.1788 71.2433L124.365 183.43L12.1788 295.616C4.43394 303.361 4.43394 315.918 12.1788 323.663C19.9236 331.407 32.4805 331.407 40.2254 323.663L166.435 197.453ZM117.706 203.262L152.412 203.262L152.412 163.598L117.706 163.598L117.706 203.262Z" fill="url(#paint9_linear_104_2044)"/>
<path d="M68.9767 169.406C61.2318 177.151 61.2318 189.708 68.9767 197.453L195.186 323.663C202.931 331.407 215.488 331.407 223.233 323.663C230.978 315.918 230.978 303.361 223.233 295.616L111.047 183.43L223.233 71.2433C230.978 63.4985 230.978 50.9416 223.233 43.1967C215.488 35.4519 202.931 35.4519 195.186 43.1967L68.9767 169.406ZM117.706 163.598H83V203.262H117.706V163.598Z" fill="url(#paint10_linear_104_2044)"/>
<path d="M166.435 218.81C174.18 211.066 174.18 198.509 166.435 190.764L40.2254 64.5541C32.4806 56.8093 19.9237 56.8093 12.1788 64.5541C4.43396 72.299 4.43396 84.8559 12.1788 92.6007L124.365 204.787L12.1788 316.973C4.43394 324.718 4.43394 337.275 12.1788 345.02C19.9236 352.765 32.4805 352.765 40.2254 345.02L166.435 218.81ZM117.706 224.619L152.412 224.619L152.412 184.955L117.706 184.955L117.706 224.619Z" fill="url(#paint11_linear_104_2044)"/>
<path d="M68.9767 148.049C61.2318 155.794 61.2318 168.351 68.9767 176.096L195.186 302.305C202.931 310.05 215.488 310.05 223.233 302.305C230.978 294.56 230.978 282.003 223.233 274.259L111.047 162.072L223.233 49.8859C230.978 42.1411 230.978 29.5842 223.233 21.8393C215.488 14.0945 202.931 14.0945 195.186 21.8393L68.9767 148.049ZM117.706 142.24H83V181.904H117.706V142.24Z" fill="url(#paint12_linear_104_2044)"/>
<path d="M166.435 240.168C174.18 232.423 174.18 219.866 166.435 212.121L40.2254 85.9116C32.4806 78.1667 19.9237 78.1667 12.1788 85.9116C4.43396 93.6564 4.43396 106.213 12.1788 113.958L124.365 226.145L12.1788 338.331C4.43394 346.076 4.43394 358.633 12.1788 366.377C19.9236 374.122 32.4805 374.122 40.2254 366.377L166.435 240.168ZM117.706 245.976L152.412 245.976L152.412 206.313L117.706 206.313L117.706 245.976Z" fill="url(#paint13_linear_104_2044)"/>
<path d="M68.9767 126.692C61.2318 134.436 61.2318 146.993 68.9767 154.738L195.186 280.948C202.931 288.693 215.488 288.693 223.233 280.948C230.978 273.203 230.978 260.646 223.233 252.901L111.047 140.715L223.233 28.5285C230.978 20.7836 230.978 8.22675 223.233 0.481888C215.488 -7.26295 202.931 -7.26295 195.186 0.481888L68.9767 126.692ZM117.706 120.883H83V160.547H117.706V120.883Z" fill="url(#paint14_linear_104_2044)"/>
<path d="M166.435 261.525C174.18 253.78 174.18 241.224 166.435 233.479L40.2254 107.269C32.4806 99.5241 19.9237 99.5241 12.1788 107.269C4.43396 115.014 4.43396 127.571 12.1788 135.316L124.365 247.502L12.1788 359.688C4.43394 367.433 4.43394 379.99 12.1788 387.735C19.9236 395.48 32.4805 395.48 40.2254 387.735L166.435 261.525ZM117.706 267.334L152.412 267.334L152.412 227.67L117.706 227.67L117.706 267.334Z" fill="url(#paint15_linear_104_2044)"/>
<path d="M68.9767 105.334C61.2318 113.079 61.2318 125.636 68.9767 133.38L195.186 259.59C202.931 267.335 215.488 267.335 223.233 259.59C230.978 251.845 230.978 239.288 223.233 231.544L111.047 119.357L223.233 7.17081C230.978 -0.574036 230.978 -13.1309 223.233 -20.8758C215.488 -28.6206 202.931 -28.6206 195.186 -20.8758L68.9767 105.334ZM117.706 99.5252H83V139.189H117.706V99.5252Z" fill="url(#paint16_linear_104_2044)"/>
<path d="M166.435 282.883C174.18 275.138 174.18 262.581 166.435 254.836L40.2254 128.626C32.4806 120.882 19.9237 120.882 12.1788 128.626C4.43396 136.371 4.43396 148.928 12.1788 156.673L124.365 268.859L12.1788 381.046C4.43394 388.791 4.43394 401.347 12.1788 409.092C19.9236 416.837 32.4805 416.837 40.2254 409.092L166.435 282.883ZM117.706 288.691L152.412 288.691L152.412 249.027L117.706 249.027L117.706 288.691Z" fill="url(#paint17_linear_104_2044)"/>
<path d="M68.9767 83.9765C61.2318 91.7213 61.2318 104.278 68.9767 112.023L195.186 238.233C202.931 245.978 215.488 245.978 223.233 238.233C230.978 230.488 230.978 217.931 223.233 210.186L111.047 97.9998L223.233 -14.1866C230.978 -21.9315 230.978 -34.4883 223.233 -42.2332C215.488 -49.978 202.931 -49.978 195.186 -42.2332L68.9767 83.9765ZM117.706 78.1678H83V117.832H117.706V78.1678Z" fill="url(#paint18_linear_104_2044)"/>
<path d="M166.435 304.24C174.18 296.495 174.18 283.938 166.435 276.194L40.2254 149.984C32.4806 142.239 19.9237 142.239 12.1788 149.984C4.43396 157.729 4.43396 170.286 12.1788 178.03L124.365 290.217L12.1788 402.403C4.43394 410.148 4.43394 422.705 12.1788 430.45C19.9236 438.195 32.4805 438.195 40.2254 430.45L166.435 304.24ZM117.706 310.049L152.412 310.049L152.412 270.385L117.706 270.385L117.706 310.049Z" fill="url(#paint19_linear_104_2044)"/>
<path d="M119.5 97.479V107.513H116.891V97.479H119.5ZM121.105 134.479V144.513H118.818L117.461 139.951V144.513H115.279V134.479H117.461L118.923 138.997V134.479H121.105ZM120.962 173.516H118.539V172.772C118.539 172.425 118.508 172.204 118.446 172.109C118.384 172.014 118.281 171.966 118.136 171.966C117.979 171.966 117.859 172.03 117.777 172.158C117.698 172.287 117.659 172.481 117.659 172.741C117.659 173.076 117.705 173.328 117.795 173.497C117.882 173.667 118.128 173.871 118.533 174.111C119.694 174.801 120.425 175.367 120.727 175.809C121.028 176.251 121.179 176.964 121.179 177.947C121.179 178.662 121.095 179.189 120.925 179.527C120.76 179.866 120.438 180.151 119.958 180.383C119.479 180.61 118.921 180.723 118.285 180.723C117.587 180.723 116.99 180.591 116.494 180.327C116.002 180.062 115.68 179.726 115.527 179.317C115.374 178.908 115.298 178.327 115.298 177.575V176.918H117.721V178.139C117.721 178.515 117.754 178.757 117.82 178.864C117.89 178.972 118.012 179.025 118.186 179.025C118.359 179.025 118.488 178.957 118.57 178.821C118.657 178.684 118.7 178.482 118.7 178.213C118.7 177.623 118.62 177.236 118.459 177.055C118.293 176.873 117.886 176.569 117.238 176.143C116.589 175.714 116.159 175.402 115.949 175.208C115.738 175.013 115.562 174.745 115.422 174.402C115.285 174.059 115.217 173.621 115.217 173.088C115.217 172.32 115.314 171.758 115.509 171.402C115.707 171.047 116.025 170.77 116.463 170.572C116.901 170.369 117.43 170.268 118.05 170.268C118.727 170.268 119.304 170.378 119.779 170.597C120.258 170.816 120.574 171.093 120.727 171.427C120.884 171.758 120.962 172.322 120.962 173.119V173.516ZM120.002 207.479L121.495 217.513H118.824L118.694 215.709H117.758L117.603 217.513H114.901L116.227 207.479H120.002ZM118.62 213.931C118.488 212.794 118.355 211.392 118.223 209.722C117.959 211.64 117.793 213.042 117.727 213.931H118.62ZM121.105 243.479V253.513H118.818L117.461 248.951V253.513H115.279V243.479H117.461L118.923 247.997V243.479H121.105ZM116.079 280.479H120.429V282.487H118.688V284.39H120.318V286.298H118.688V288.505H120.603V290.513H116.079V280.479Z" fill="white"/>
<path d="M80.4625 260.384C78.8986 261.948 78.8986 264.483 80.4625 266.047L105.947 291.532C107.511 293.095 110.046 293.095 111.61 291.532C113.174 289.968 113.174 287.432 111.61 285.868L88.9573 263.215L111.61 240.562C113.174 238.998 113.174 236.463 111.61 234.899C110.046 233.335 107.511 233.335 105.947 234.899L80.4625 260.384ZM118 259.211H83.2941V267.22H118V259.211Z" fill="url(#paint20_linear_104_2044)"/>
<path d="M155.537 73.8297C157.101 72.2658 157.101 69.7303 155.537 68.1664L130.053 42.6818C128.489 41.1179 125.953 41.1179 124.39 42.6818C122.826 44.2456 122.826 46.7812 124.39 48.345L147.043 70.998L124.39 93.6511C122.826 95.2149 122.826 97.7504 124.39 99.3143C125.953 100.878 128.489 100.878 130.053 99.3143L155.537 73.8297ZM118 75.0026L152.706 75.0026L152.706 66.9935L118 66.9935L118 75.0026Z" fill="url(#paint21_linear_104_2044)"/>
<path d="M80.4625 239.026C78.8986 240.59 78.8986 243.126 80.4625 244.69L105.947 270.174C107.511 271.738 110.046 271.738 111.61 270.174C113.174 268.61 113.174 266.075 111.61 264.511L88.9573 241.858L111.61 219.205C113.174 217.641 113.174 215.106 111.61 213.542C110.046 211.978 107.511 211.978 105.947 213.542L80.4625 239.026ZM118 237.853H83.2941V245.862H118V237.853Z" fill="url(#paint22_linear_104_2044)"/>
<path d="M155.537 95.1871C157.101 93.6232 157.101 91.0877 155.537 89.5238L130.053 64.0392C128.489 62.4753 125.953 62.4753 124.39 64.0392C122.826 65.6031 122.826 68.1386 124.39 69.7025L147.043 92.3555L124.39 115.008C122.826 116.572 122.826 119.108 124.39 120.672C125.953 122.236 128.489 122.236 130.053 120.672L155.537 95.1871ZM118 96.36L152.706 96.36L152.706 88.3509L118 88.3509L118 96.36Z" fill="url(#paint23_linear_104_2044)"/>
<path d="M80.4625 217.669C78.8986 219.233 78.8986 221.768 80.4625 223.332L105.947 248.817C107.511 250.381 110.046 250.381 111.61 248.817C113.174 247.253 113.174 244.717 111.61 243.154L88.9573 220.5L111.61 197.847C113.174 196.284 113.174 193.748 111.61 192.184C110.046 190.62 107.511 190.62 105.947 192.184L80.4625 217.669ZM118 216.496H83.2941V224.505H118V216.496Z" fill="url(#paint24_linear_104_2044)"/>
<path d="M155.537 116.545C157.101 114.981 157.101 112.445 155.537 110.882L130.053 85.3969C128.489 83.833 125.953 83.833 124.39 85.3969C122.826 86.9607 122.826 89.4963 124.39 91.0601L147.043 113.713L124.39 136.366C122.826 137.93 122.826 140.466 124.39 142.029C125.953 143.593 128.489 143.593 130.053 142.029L155.537 116.545ZM118 117.718L152.706 117.718L152.706 109.709L118 109.709L118 117.718Z" fill="url(#paint25_linear_104_2044)"/>
<path d="M80.4625 196.311C78.8986 197.875 78.8986 200.411 80.4625 201.975L105.947 227.459C107.511 229.023 110.046 229.023 111.61 227.459C113.174 225.895 113.174 223.36 111.61 221.796L88.9573 199.143L111.61 176.49C113.174 174.926 113.174 172.391 111.61 170.827C110.046 169.263 107.511 169.263 105.947 170.827L80.4625 196.311ZM118 195.139H83.2941V203.148H118V195.139Z" fill="url(#paint26_linear_104_2044)"/>
<path d="M155.537 137.902C157.101 136.339 157.101 133.803 155.537 132.239L130.053 106.755C128.489 105.191 125.953 105.191 124.39 106.755C122.826 108.318 122.826 110.854 124.39 112.418L147.043 135.071L124.39 157.724C122.826 159.288 122.826 161.823 124.39 163.387C125.953 164.951 128.489 164.951 130.053 163.387L155.537 137.902ZM118 139.075L152.706 139.075L152.706 131.066L118 131.066L118 139.075Z" fill="url(#paint27_linear_104_2044)"/>
<path d="M80.4625 174.954C78.8986 176.518 78.8986 179.053 80.4625 180.617L105.947 206.102C107.511 207.666 110.046 207.666 111.61 206.102C113.174 204.538 113.174 202.003 111.61 200.439L88.9573 177.786L111.61 155.133C113.174 153.569 113.174 151.033 111.61 149.469C110.046 147.906 107.511 147.906 105.947 149.469L80.4625 174.954ZM118 173.781H83.2941V181.79H118V173.781Z" fill="url(#paint28_linear_104_2044)"/>
<path d="M155.537 159.26C157.101 157.696 157.101 155.16 155.537 153.597L130.053 128.112C128.489 126.548 125.953 126.548 124.39 128.112C122.826 129.676 122.826 132.211 124.39 133.775L147.043 156.428L124.39 179.081C122.826 180.645 122.826 183.181 124.39 184.744C125.953 186.308 128.489 186.308 130.053 184.744L155.537 159.26ZM118 160.433L152.706 160.433L152.706 152.424L118 152.424L118 160.433Z" fill="url(#paint29_linear_104_2044)"/>
<path d="M80.4625 153.597C78.8986 155.16 78.8986 157.696 80.4625 159.26L105.947 184.744C107.511 186.308 110.046 186.308 111.61 184.744C113.174 183.181 113.174 180.645 111.61 179.081L88.9573 156.428L111.61 133.775C113.174 132.211 113.174 129.676 111.61 128.112C110.046 126.548 107.511 126.548 105.947 128.112L80.4625 153.597ZM118 152.424H83.2941V160.433H118V152.424Z" fill="url(#paint30_linear_104_2044)"/>
<path d="M155.537 180.617C157.101 179.053 157.101 176.518 155.537 174.954L130.053 149.469C128.489 147.906 125.953 147.906 124.39 149.469C122.826 151.033 122.826 153.569 124.39 155.133L147.043 177.786L124.39 200.439C122.826 202.003 122.826 204.538 124.39 206.102C125.953 207.666 128.489 207.666 130.053 206.102L155.537 180.617ZM118 181.79L152.706 181.79L152.706 173.781L118 173.781L118 181.79Z" fill="url(#paint31_linear_104_2044)"/>
<path d="M80.4625 132.239C78.8986 133.803 78.8986 136.339 80.4625 137.902L105.947 163.387C107.511 164.951 110.046 164.951 111.61 163.387C113.174 161.823 113.174 159.288 111.61 157.724L88.9573 135.071L111.61 112.418C113.174 110.854 113.174 108.318 111.61 106.755C110.046 105.191 107.511 105.191 105.947 106.755L80.4625 132.239ZM118 131.066H83.2941V139.075H118V131.066Z" fill="url(#paint32_linear_104_2044)"/>
<path d="M155.537 201.975C157.101 200.411 157.101 197.875 155.537 196.311L130.053 170.827C128.489 169.263 125.953 169.263 124.39 170.827C122.826 172.391 122.826 174.926 124.39 176.49L147.043 199.143L124.39 221.796C122.826 223.36 122.826 225.895 124.39 227.459C125.953 229.023 128.489 229.023 130.053 227.459L155.537 201.975ZM118 203.148L152.706 203.148L152.706 195.139L118 195.139L118 203.148Z" fill="url(#paint33_linear_104_2044)"/>
<path d="M80.4625 110.882C78.8986 112.445 78.8986 114.981 80.4625 116.545L105.947 142.029C107.511 143.593 110.046 143.593 111.61 142.029C113.174 140.466 113.174 137.93 111.61 136.366L88.9573 113.713L111.61 91.0601C113.174 89.4963 113.174 86.9607 111.61 85.3969C110.046 83.833 107.511 83.833 105.947 85.3969L80.4625 110.882ZM118 109.709H83.2941V117.718H118V109.709Z" fill="url(#paint34_linear_104_2044)"/>
<path d="M155.537 223.332C157.101 221.768 157.101 219.233 155.537 217.669L130.053 192.184C128.489 190.62 125.953 190.62 124.39 192.184C122.826 193.748 122.826 196.284 124.39 197.847L147.043 220.5L124.39 243.154C122.826 244.717 122.826 247.253 124.39 248.817C125.953 250.381 128.489 250.381 130.053 248.817L155.537 223.332ZM118 224.505L152.706 224.505L152.706 216.496L118 216.496L118 224.505Z" fill="url(#paint35_linear_104_2044)"/>
<path d="M80.4625 89.5238C78.8986 91.0877 78.8986 93.6232 80.4625 95.1871L105.947 120.672C107.511 122.236 110.046 122.236 111.61 120.672C113.174 119.108 113.174 116.572 111.61 115.008L88.9573 92.3555L111.61 69.7025C113.174 68.1386 113.174 65.6031 111.61 64.0392C110.046 62.4753 107.511 62.4753 105.947 64.0392L80.4625 89.5238ZM118 88.3509H83.2941V96.36H118V88.3509Z" fill="url(#paint36_linear_104_2044)"/>
<path d="M155.537 244.69C157.101 243.126 157.101 240.59 155.537 239.026L130.053 213.542C128.489 211.978 125.953 211.978 124.39 213.542C122.826 215.106 122.826 217.641 124.39 219.205L147.043 241.858L124.39 264.511C122.826 266.075 122.826 268.61 124.39 270.174C125.953 271.738 128.489 271.738 130.053 270.174L155.537 244.69ZM118 245.862L152.706 245.862L152.706 237.853L118 237.853L118 245.862Z" fill="url(#paint37_linear_104_2044)"/>
<path d="M80.4625 68.1664C78.8986 69.7303 78.8986 72.2658 80.4625 73.8297L105.947 99.3143C107.511 100.878 110.046 100.878 111.61 99.3143C113.174 97.7504 113.174 95.2149 111.61 93.6511L88.9573 70.998L111.61 48.345C113.174 46.7812 113.174 44.2456 111.61 42.6818C110.046 41.1179 107.511 41.1179 105.947 42.6818L80.4625 68.1664ZM118 66.9935H83.2941V75.0026H118V66.9935Z" fill="url(#paint38_linear_104_2044)"/>
<path d="M155.537 266.047C157.101 264.483 157.101 261.948 155.537 260.384L130.053 234.899C128.489 233.335 125.953 233.335 124.39 234.899C122.826 236.463 122.826 238.998 124.39 240.562L147.043 263.215L124.39 285.868C122.826 287.432 122.826 289.968 124.39 291.532C125.953 293.095 128.489 293.095 130.053 291.532L155.537 266.047ZM118 267.22L152.706 267.22L152.706 259.211L118 259.211L118 267.22Z" fill="url(#paint39_linear_104_2044)"/>
</g>
<defs>
<linearGradient id="paint0_linear_104_2044" x1="100.353" y1="290.217" x2="100.353" y2="289.217" gradientUnits="userSpaceOnUse">
<stop stop-color="#051413"/>
<stop offset="1" stop-color="#00FFF0" stop-opacity="0"/>
</linearGradient>
<linearGradient id="paint1_linear_104_2044" x1="135.059" y1="97.9998" x2="135.059" y2="98.9998" gradientUnits="userSpaceOnUse">
<stop stop-color="#051413"/>
<stop offset="1" stop-color="#00FFF0" stop-opacity="0"/>
</linearGradient>
<linearGradient id="paint2_linear_104_2044" x1="100.353" y1="268.859" x2="100.353" y2="267.859" gradientUnits="userSpaceOnUse">
<stop stop-color="#051413"/>
<stop offset="1" stop-color="#00FFF0" stop-opacity="0"/>
</linearGradient>
<linearGradient id="paint3_linear_104_2044" x1="135.059" y1="119.357" x2="135.059" y2="120.357" gradientUnits="userSpaceOnUse">
<stop stop-color="#051413"/>
<stop offset="1" stop-color="#00FFF0" stop-opacity="0"/>
</linearGradient>
<linearGradient id="paint4_linear_104_2044" x1="100.353" y1="247.502" x2="100.353" y2="246.502" gradientUnits="userSpaceOnUse">
<stop stop-color="#051413"/>
<stop offset="1" stop-color="#00FFF0" stop-opacity="0"/>
</linearGradient>
<linearGradient id="paint5_linear_104_2044" x1="135.059" y1="140.715" x2="135.059" y2="141.715" gradientUnits="userSpaceOnUse">
<stop stop-color="#051413"/>
<stop offset="1" stop-color="#00FFF0" stop-opacity="0"/>
</linearGradient>
<linearGradient id="paint6_linear_104_2044" x1="100.353" y1="226.145" x2="100.353" y2="225.145" gradientUnits="userSpaceOnUse">
<stop stop-color="#051413"/>
<stop offset="1" stop-color="#00FFF0" stop-opacity="0"/>
</linearGradient>
<linearGradient id="paint7_linear_104_2044" x1="135.059" y1="162.072" x2="135.059" y2="163.072" gradientUnits="userSpaceOnUse">
<stop stop-color="#051413"/>
<stop offset="1" stop-color="#00FFF0" stop-opacity="0"/>
</linearGradient>
<linearGradient id="paint8_linear_104_2044" x1="100.353" y1="204.787" x2="100.353" y2="203.787" gradientUnits="userSpaceOnUse">
<stop stop-color="#051413"/>
<stop offset="1" stop-color="#00FFF0" stop-opacity="0"/>
</linearGradient>
<linearGradient id="paint9_linear_104_2044" x1="135.059" y1="183.43" x2="135.059" y2="184.43" gradientUnits="userSpaceOnUse">
<stop stop-color="#051413"/>
<stop offset="1" stop-color="#00FFF0" stop-opacity="0"/>
</linearGradient>
<linearGradient id="paint10_linear_104_2044" x1="100.353" y1="183.43" x2="100.353" y2="182.43" gradientUnits="userSpaceOnUse">
<stop stop-color="#051413"/>
<stop offset="1" stop-color="#00FFF0" stop-opacity="0"/>
</linearGradient>
<linearGradient id="paint11_linear_104_2044" x1="135.059" y1="204.787" x2="135.059" y2="205.787" gradientUnits="userSpaceOnUse">
<stop stop-color="#051413"/>
<stop offset="1" stop-color="#00FFF0" stop-opacity="0"/>
</linearGradient>
<linearGradient id="paint12_linear_104_2044" x1="100.353" y1="162.072" x2="100.353" y2="161.072" gradientUnits="userSpaceOnUse">
<stop stop-color="#051413"/>
<stop offset="1" stop-color="#00FFF0" stop-opacity="0"/>
</linearGradient>
<linearGradient id="paint13_linear_104_2044" x1="135.059" y1="226.145" x2="135.059" y2="227.145" gradientUnits="userSpaceOnUse">
<stop stop-color="#051413"/>
<stop offset="1" stop-color="#00FFF0" stop-opacity="0"/>
</linearGradient>
<linearGradient id="paint14_linear_104_2044" x1="100.353" y1="140.715" x2="100.353" y2="139.715" gradientUnits="userSpaceOnUse">
<stop stop-color="#051413"/>
<stop offset="1" stop-color="#00FFF0" stop-opacity="0"/>
</linearGradient>
<linearGradient id="paint15_linear_104_2044" x1="135.059" y1="247.502" x2="135.059" y2="248.502" gradientUnits="userSpaceOnUse">
<stop stop-color="#051413"/>
<stop offset="1" stop-color="#00FFF0" stop-opacity="0"/>
</linearGradient>
<linearGradient id="paint16_linear_104_2044" x1="100.353" y1="119.357" x2="100.353" y2="118.357" gradientUnits="userSpaceOnUse">
<stop stop-color="#051413"/>
<stop offset="1" stop-color="#00FFF0" stop-opacity="0"/>
</linearGradient>
<linearGradient id="paint17_linear_104_2044" x1="135.059" y1="268.859" x2="135.059" y2="269.859" gradientUnits="userSpaceOnUse">
<stop stop-color="#051413"/>
<stop offset="1" stop-color="#00FFF0" stop-opacity="0"/>
</linearGradient>
<linearGradient id="paint18_linear_104_2044" x1="100.353" y1="97.9998" x2="100.353" y2="96.9998" gradientUnits="userSpaceOnUse">
<stop stop-color="#051413"/>
<stop offset="1" stop-color="#00FFF0" stop-opacity="0"/>
</linearGradient>
<linearGradient id="paint19_linear_104_2044" x1="135.059" y1="290.217" x2="135.059" y2="291.217" gradientUnits="userSpaceOnUse">
<stop stop-color="#051413"/>
<stop offset="1" stop-color="#00FFF0" stop-opacity="0"/>
</linearGradient>
<linearGradient id="paint20_linear_104_2044" x1="100.647" y1="263.215" x2="100.647" y2="262.215" gradientUnits="userSpaceOnUse">
<stop stop-color="#FF0000"/>
<stop offset="1" stop-color="#FF0000" stop-opacity="0"/>
</linearGradient>
<linearGradient id="paint21_linear_104_2044" x1="135.353" y1="70.998" x2="135.353" y2="71.998" gradientUnits="userSpaceOnUse">
<stop stop-color="#FF0000"/>
<stop offset="1" stop-color="#FF0000" stop-opacity="0"/>
</linearGradient>
<linearGradient id="paint22_linear_104_2044" x1="100.647" y1="241.858" x2="100.647" y2="240.858" gradientUnits="userSpaceOnUse">
<stop stop-color="#FF0000"/>
<stop offset="1" stop-color="#FF0000" stop-opacity="0"/>
</linearGradient>
<linearGradient id="paint23_linear_104_2044" x1="135.353" y1="92.3555" x2="135.353" y2="93.3555" gradientUnits="userSpaceOnUse">
<stop stop-color="#FF0000"/>
<stop offset="1" stop-color="#FF0000" stop-opacity="0"/>
</linearGradient>
<linearGradient id="paint24_linear_104_2044" x1="100.647" y1="220.5" x2="100.647" y2="219.5" gradientUnits="userSpaceOnUse">
<stop stop-color="#FF0000"/>
<stop offset="1" stop-color="#FF0000" stop-opacity="0"/>
</linearGradient>
<linearGradient id="paint25_linear_104_2044" x1="135.353" y1="113.713" x2="135.353" y2="114.713" gradientUnits="userSpaceOnUse">
<stop stop-color="#FF0000"/>
<stop offset="1" stop-color="#FF0000" stop-opacity="0"/>
</linearGradient>
<linearGradient id="paint26_linear_104_2044" x1="100.647" y1="199.143" x2="100.647" y2="198.143" gradientUnits="userSpaceOnUse">
<stop stop-color="#FF0000"/>
<stop offset="1" stop-color="#FF0000" stop-opacity="0"/>
</linearGradient>
<linearGradient id="paint27_linear_104_2044" x1="135.353" y1="135.071" x2="135.353" y2="136.071" gradientUnits="userSpaceOnUse">
<stop stop-color="#FF0000"/>
<stop offset="1" stop-color="#FF0000" stop-opacity="0"/>
</linearGradient>
<linearGradient id="paint28_linear_104_2044" x1="100.647" y1="177.786" x2="100.647" y2="176.786" gradientUnits="userSpaceOnUse">
<stop stop-color="#FF0000"/>
<stop offset="1" stop-color="#FF0000" stop-opacity="0"/>
</linearGradient>
<linearGradient id="paint29_linear_104_2044" x1="135.353" y1="156.428" x2="135.353" y2="157.428" gradientUnits="userSpaceOnUse">
<stop stop-color="#FF0000"/>
<stop offset="1" stop-color="#FF0000" stop-opacity="0"/>
</linearGradient>
<linearGradient id="paint30_linear_104_2044" x1="100.647" y1="156.428" x2="100.647" y2="155.428" gradientUnits="userSpaceOnUse">
<stop stop-color="#FF0000"/>
<stop offset="1" stop-color="#FF0000" stop-opacity="0"/>
</linearGradient>
<linearGradient id="paint31_linear_104_2044" x1="135.353" y1="177.786" x2="135.353" y2="178.786" gradientUnits="userSpaceOnUse">
<stop stop-color="#FF0000"/>
<stop offset="1" stop-color="#FF0000" stop-opacity="0"/>
</linearGradient>
<linearGradient id="paint32_linear_104_2044" x1="100.647" y1="135.071" x2="100.647" y2="134.071" gradientUnits="userSpaceOnUse">
<stop stop-color="#FF0000"/>
<stop offset="1" stop-color="#FF0000" stop-opacity="0"/>
</linearGradient>
<linearGradient id="paint33_linear_104_2044" x1="135.353" y1="199.143" x2="135.353" y2="200.143" gradientUnits="userSpaceOnUse">
<stop stop-color="#FF0000"/>
<stop offset="1" stop-color="#FF0000" stop-opacity="0"/>
</linearGradient>
<linearGradient id="paint34_linear_104_2044" x1="100.647" y1="113.713" x2="100.647" y2="112.713" gradientUnits="userSpaceOnUse">
<stop stop-color="#FF0000"/>
<stop offset="1" stop-color="#FF0000" stop-opacity="0"/>
</linearGradient>
<linearGradient id="paint35_linear_104_2044" x1="135.353" y1="220.5" x2="135.353" y2="221.5" gradientUnits="userSpaceOnUse">
<stop stop-color="#FF0000"/>
<stop offset="1" stop-color="#FF0000" stop-opacity="0"/>
</linearGradient>
<linearGradient id="paint36_linear_104_2044" x1="100.647" y1="92.3555" x2="100.647" y2="91.3555" gradientUnits="userSpaceOnUse">
<stop stop-color="#FF0000"/>
<stop offset="1" stop-color="#FF0000" stop-opacity="0"/>
</linearGradient>
<linearGradient id="paint37_linear_104_2044" x1="135.353" y1="241.858" x2="135.353" y2="242.858" gradientUnits="userSpaceOnUse">
<stop stop-color="#FF0000"/>
<stop offset="1" stop-color="#FF0000" stop-opacity="0"/>
</linearGradient>
<linearGradient id="paint38_linear_104_2044" x1="100.647" y1="70.998" x2="100.647" y2="69.998" gradientUnits="userSpaceOnUse">
<stop stop-color="#FF0000"/>
<stop offset="1" stop-color="#FF0000" stop-opacity="0"/>
</linearGradient>
<linearGradient id="paint39_linear_104_2044" x1="135.353" y1="263.215" x2="135.353" y2="264.215" gradientUnits="userSpaceOnUse">
<stop stop-color="#FF0000"/>
<stop offset="1" stop-color="#FF0000" stop-opacity="0"/>
</linearGradient>
<clipPath id="clip0_104_2044">
<rect width="236" height="387" fill="white"/>
</clipPath>
</defs>
</svg>
